MerriweatherSans-ExtraBold.ufo
<glyph name="dollar" format="1">
  <advance width="1409"/>
  <unicode hex="0024"/>
  <outline>
    <contour>
      <point x="616" y="1454" type="line"/>
      <point x="820" y="1454" type="line"/>
      <point x="832" y="1763" type="line"/>
      <point x="628" y="1763" type="line"/>
    </contour>
    <contour>
      <point x="557" y="-225" type="line"/>
      <point x="762" y="-225" type="line"/>
      <point x="773" y="84" type="line"/>
      <point x="569" y="84" type="line"/>
    </contour>
    <component base="S" xOffset="86"/>
  </outline>
</glyph>
<glyph name="percent" format="1">
  <advance width="2287"/>
  <unicode hex="0025"/>
  <outline>
    <contour>
      <point x="521" y="589" type="curve" smooth="yes"/>
      <point x="759" y="590"/>
      <point x="978" y="759"/>
      <point x="978" y="1063" type="curve" smooth="yes"/>
      <point x="978" y="1324"/>
      <point x="851" y="1534"/>
      <point x="557" y="1532" type="curve" smooth="yes"/>
      <point x="318" y="1531"/>
      <point x="99" y="1362"/>
      <point x="99" y="1057" type="curve" smooth="yes"/>
      <point x="99" y="796"/>
      <point x="230" y="587"/>
    </contour>
    <contour>
      <point x="727" y="0" type="line"/>
      <point x="1009" y="0" type="line"/>
      <point x="1566" y="1530" type="line"/>
      <point x="1283" y="1530" type="line"/>
    </contour>
    <contour>
      <point x="536" y="822" type="curve" smooth="yes"/>
      <point x="438" y="822"/>
      <point x="382" y="920"/>
      <point x="382" y="1067" type="curve" smooth="yes"/>
      <point x="382" y="1212"/>
      <point x="438" y="1300"/>
      <point x="540" y="1300" type="curve" smooth="yes"/>
      <point x="638" y="1300"/>
      <point x="694" y="1203"/>
      <point x="694" y="1055" type="curve" smooth="yes"/>
      <point x="694" y="910"/>
      <point x="638" y="822"/>
    </contour>
    <contour>
      <point x="1730" y="-4" type="curve" smooth="yes"/>
      <point x="1969" y="-3"/>
      <point x="2188" y="166"/>
      <point x="2188" y="471" type="curve" smooth="yes"/>
      <point x="2188" y="732"/>
      <point x="2060" y="941"/>
      <point x="1766" y="939" type="curve" smooth="yes"/>
      <point x="1528" y="938"/>
      <point x="1309" y="770"/>
      <point x="1309" y="464" type="curve" smooth="yes"/>
      <point x="1309" y="204"/>
      <point x="1439" y="-5"/>
    </contour>
    <contour>
      <point x="1746" y="230" type="curve" smooth="yes"/>
      <point x="1648" y="230"/>
      <point x="1592" y="327"/>
      <point x="1592" y="475" type="curve" smooth="yes"/>
      <point x="1592" y="620"/>
      <point x="1648" y="708"/>
      <point x="1750" y="708" type="curve" smooth="yes"/>
      <point x="1848" y="708"/>
      <point x="1903" y="610"/>
      <point x="1903" y="463" type="curve" smooth="yes"/>
      <point x="1903" y="318"/>
      <point x="1848" y="230"/>
    </contour>
  </outline>
</glyph>
<glyph name="ampersand" format="1">
  <advance width="1540"/>
  <unicode hex="0026"/>
  <outline>
    <contour>
      <point x="964" y="300" type="curve"/>
      <point x="894" y="259"/>
      <point x="825" y="232"/>
      <point x="698" y="232" type="curve" smooth="yes"/>
      <point x="485" y="232"/>
      <point x="404" y="311"/>
      <point x="404" y="428" type="curve" smooth="yes"/>
      <point x="404" y="531"/>
      <point x="483" y="602"/>
      <point x="619" y="657" type="curve"/>
      <point x="621" y="657"/>
      <point x="726" y="686"/>
      <point x="728" y="687" type="curve"/>
      <point x="940" y="781"/>
      <point x="1146" y="882"/>
      <point x="1146" y="1172" type="curve" smooth="yes"/>
      <point x="1146" y="1384"/>
      <point x="970" y="1546"/>
      <point x="698" y="1546" type="curve" smooth="yes"/>
      <point x="418" y="1546"/>
      <point x="237" y="1402"/>
      <point x="237" y="1154" type="curve" smooth="yes"/>
      <point x="237" y="972"/>
      <point x="335" y="832"/>
      <point x="435" y="703" type="curve"/>
      <point x="464" y="669" type="line"/>
      <point x="568" y="528"/>
      <point x="765" y="302"/>
      <point x="912" y="158" type="curve" smooth="yes"/>
      <point x="1010" y="69"/>
      <point x="1143" y="-16"/>
      <point x="1340" y="-16" type="curve" smooth="yes"/>
      <point x="1406" y="-16"/>
      <point x="1461" y="-9"/>
      <point x="1496" y="-1" type="curve"/>
      <point x="1496" y="204" type="line"/>
      <point x="1340" y="204"/>
      <point x="1267" y="255"/>
      <point x="1160" y="344" type="curve" smooth="yes"/>
      <point x="1048" y="444"/>
      <point x="866" y="671"/>
      <point x="796" y="771" type="curve"/>
      <point x="764" y="813" type="line"/>
      <point x="619" y="1000"/>
      <point x="560" y="1052"/>
      <point x="560" y="1163" type="curve" smooth="yes"/>
      <point x="560" y="1247"/>
      <point x="612" y="1313"/>
      <point x="704" y="1313" type="curve" smooth="yes"/>
      <point x="814" y="1313"/>
      <point x="843" y="1229"/>
      <point x="843" y="1169" type="curve" smooth="yes"/>
      <point x="843" y="1022"/>
      <point x="742" y="923"/>
      <point x="590" y="862" type="curve"/>
      <point x="588" y="862"/>
      <point x="504" y="844"/>
      <point x="502" y="844" type="curve"/>
      <point x="252" y="763"/>
      <point x="61" y="641"/>
      <point x="61" y="410" type="curve" smooth="yes"/>
      <point x="61" y="139"/>
      <point x="285" y="-16"/>
      <point x="741" y="-16" type="curve" smooth="yes"/>
      <point x="908" y="-16"/>
      <point x="1062" y="43"/>
      <point x="1166" y="101" type="curve"/>
      <point x="1169" y="101"/>
      <point x="1219" y="160"/>
      <point x="1221" y="161" type="curve"/>
      <point x="1346" y="246"/>
      <point x="1436" y="375"/>
      <point x="1436" y="602" type="curve" smooth="yes"/>
      <point x="1436" y="697"/>
      <point x="1427" y="741"/>
      <point x="1421" y="766" type="curve"/>
      <point x="1127" y="766" type="line"/>
      <point x="1130" y="738"/>
      <point x="1144" y="696"/>
      <point x="1144" y="603" type="curve" smooth="yes"/>
      <point x="1144" y="522"/>
      <point x="1108" y="396"/>
      <point x="1022" y="357" type="curve"/>
      <point x="1020" y="357"/>
      <point x="969" y="301"/>
    </contour>
  </outline>
</glyph>
<glyph name="quotesingle" format="1">
  <advance width="730"/>
  <unicode hex="0027"/>
  <outline>
    <contour>
      <point x="240" y="950" type="line"/>
      <point x="491" y="950" type="line"/>
      <point x="532" y="1703" type="line"/>
      <point x="198" y="1703" type="line"/>
    </contour>
  </outline>
</glyph>
<glyph name="parenleft" format="1">
  <advance width="843"/>
  <unicode hex="0028"/>
  <outline>
    <contour>
      <point x="572" y="-360" type="curve"/>
      <point x="762" y="-229" type="line"/>
      <point x="620" y="-108"/>
      <point x="412" y="192"/>
      <point x="412" y="707" type="curve" smooth="yes"/>
      <point x="412" y="1241"/>
      <point x="664" y="1555"/>
      <point x="762" y="1637" type="curve"/>
      <point x="572" y="1767" type="line"/>
      <point x="449" y="1689"/>
      <point x="99" y="1334"/>
      <point x="99" y="713" type="curve" smooth="yes"/>
      <point x="99" y="20"/>
      <point x="461" y="-286"/>
    </contour>
  </outline>
</glyph>
<glyph name="asterisk" format="1">
  <advance width="1412"/>
  <unicode hex="002A"/>
  <outline>
    <contour>
      <point x="578" y="584" type="line"/>
      <point x="849" y="584" type="line"/>
      <point x="812" y="907" type="line"/>
      <point x="809" y="926"/>
      <point x="767" y="1054"/>
      <point x="765" y="1067" type="curve"/>
      <point x="888" y="947" type="line"/>
      <point x="1142" y="759" type="line"/>
      <point x="1279" y="1010" type="line"/>
      <point x="987" y="1135" type="line"/>
      <point x="822" y="1174" type="line"/>
      <point x="985" y="1219" type="line"/>
      <point x="1272" y="1353" type="line"/>
      <point x="1145" y="1595" type="line"/>
      <point x="879" y="1403" type="line"/>
      <point x="865" y="1391"/>
      <point x="773" y="1286"/>
      <point x="763" y="1277" type="curve"/>
      <point x="807" y="1442" type="line"/>
      <point x="834" y="1758" type="line"/>
      <point x="562" y="1758" type="line"/>
      <point x="602" y="1437" type="line"/>
      <point x="604" y="1417"/>
      <point x="646" y="1289"/>
      <point x="648" y="1275" type="curve"/>
      <point x="530" y="1396" type="line"/>
      <point x="257" y="1585" type="line"/>
      <point x="133" y="1342" type="line"/>
      <point x="427" y="1211" type="line"/>
      <point x="444" y="1204"/>
      <point x="577" y="1177"/>
      <point x="589" y="1173" type="curve"/>
      <point x="429" y="1131" type="line"/>
      <point x="140" y="992" type="line"/>
      <point x="274" y="748" type="line"/>
      <point x="534" y="941" type="line"/>
      <point x="650" y="1068" type="line"/>
      <point x="607" y="905" type="line"/>
    </contour>
  </outline>
</glyph>
<glyph name="period" format="1">
  <advance width="669"/>
  <unicode hex="002E"/>
  <outline>
    <contour>
      <point x="327" y="-22" type="curve" smooth="yes"/>
      <point x="453" y="-22"/>
      <point x="549" y="85"/>
      <point x="548" y="206" type="curve" smooth="yes"/>
      <point x="548" y="326"/>
      <point x="470" y="416"/>
      <point x="344" y="416" type="curve" smooth="yes"/>
      <point x="218" y="416"/>
      <point x="120" y="309"/>
      <point x="120" y="189" type="curve" smooth="yes"/>
      <point x="121" y="69"/>
      <point x="204" y="-22"/>
    </contour>
  </outline>
</glyph>
<glyph name="slash" format="1">
  <advance width="862"/>
  <unicode hex="002F"/>
  <outline>
    <contour>
      <point x="8" y="-363" type="line"/>
      <point x="299" y="-363" type="line"/>
      <point x="854" y="1599" type="line"/>
      <point x="563" y="1599" type="line"/>
    </contour>
  </outline>
</glyph>
<glyph name="one" format="1">
  <advance width="1058"/>
  <unicode hex="0031"/>
  <outline>
    <contour>
      <point x="382" y="0" type="line"/>
      <point x="767" y="0" type="line"/>
      <point x="770" y="1249" type="line"/>
      <point x="585" y="1278" type="line"/>
      <point x="498" y="1206"/>
      <point x="257" y="1091"/>
      <point x="125" y="1060" type="curve"/>
      <point x="155" y="836" type="line"/>
      <point x="231" y="848"/>
      <point x="303" y="860"/>
      <point x="382" y="878" type="curve"/>
    </contour>
  </outline>
</glyph>
<glyph name="two" format="1">
  <advance width="1418"/>
  <unicode hex="0032"/>
  <outline>
    <contour>
      <point x="190" y="0" type="line"/>
      <point x="1262" y="0" type="line"/>
      <point x="1262" y="314" type="line"/>
      <point x="537" y="265" type="line"/>
      <point x="530" y="178" type="line"/>
      <point x="929" y="384"/>
      <point x="1190" y="593"/>
      <point x="1190" y="889" type="curve" smooth="yes"/>
      <point x="1190" y="1092"/>
      <point x="1065" y="1292"/>
      <point x="683" y="1292" type="curve" smooth="yes"/>
      <point x="432" y="1292"/>
      <point x="230" y="1173"/>
      <point x="147" y="1088" type="curve"/>
      <point x="272" y="874" type="line"/>
      <point x="341" y="940"/>
      <point x="471" y="999"/>
      <point x="599" y="999" type="curve" smooth="yes"/>
      <point x="742" y="999"/>
      <point x="785" y="911"/>
      <point x="785" y="811" type="curve" smooth="yes"/>
      <point x="785" y="559"/>
      <point x="360" y="278"/>
      <point x="140" y="169" type="curve"/>
    </contour>
  </outline>
</glyph>
<glyph name="four" format="1">
  <advance width="1452"/>
  <unicode hex="0034"/>
  <outline>
    <contour>
      <point x="166" y="0" type="line"/>
      <point x="1399" y="0" type="line"/>
      <point x="1399" y="262" type="line"/>
      <point x="483" y="262" type="line"/>
      <point x="582" y="431" type="line"/>
      <point x="1001" y="1205" type="line"/>
      <point x="711" y="1342" type="line"/>
      <point x="634" y="1342" type="line"/>
      <point x="80" y="132" type="line"/>
    </contour>
    <contour>
      <point x="821" y="-376" type="line"/>
      <point x="1177" y="-376" type="line"/>
      <point x="1177" y="634" type="line"/>
      <point x="859" y="634" type="line"/>
      <point x="821" y="262" type="line"/>
    </contour>
  </outline>
</glyph>
<glyph name="less" format="1">
  <advance width="1376"/>
  <unicode hex="003C"/>
  <outline>
    <contour>
      <point x="211" y="699" type="line"/>
      <point x="1155" y="213" type="line"/>
      <point x="1155" y="547" type="line"/>
      <point x="601" y="792" type="line"/>
      <point x="601" y="753" type="line"/>
      <point x="1155" y="1033" type="line"/>
      <point x="1155" y="1356" type="line"/>
      <point x="211" y="853" type="line"/>
    </contour>
  </outline>
</glyph>
<glyph name="question" format="1">
  <advance width="1063"/>
  <unicode hex="003F"/>
  <outline>
    <contour>
      <point x="329" y="535" type="curve"/>
      <point x="613" y="535" type="line"/>
      <point x="593" y="611"/>
      <point x="573" y="666"/>
      <point x="577" y="726" type="curve" smooth="yes"/>
      <point x="589" y="1037"/>
      <point x="1012" y="1017"/>
      <point x="1012" y="1417" type="curve" smooth="yes"/>
      <point x="1015" y="1675"/>
      <point x="827" y="1846"/>
      <point x="435" y="1846" type="curve" smooth="yes"/>
      <point x="307" y="1846"/>
      <point x="156" y="1817"/>
      <point x="106" y="1784" type="curve"/>
      <point x="106" y="1516" type="line"/>
      <point x="149" y="1534"/>
      <point x="232" y="1564"/>
      <point x="342" y="1564" type="curve" smooth="yes"/>
      <point x="542" y="1564"/>
      <point x="614" y="1493"/>
      <point x="614" y="1379" type="curve" smooth="yes"/>
      <point x="614" y="1131"/>
      <point x="253" y="1102"/>
      <point x="255" y="787" type="curve" smooth="yes"/>
      <point x="256" y="662"/>
      <point x="296" y="589"/>
    </contour>
    <contour>
      <point x="484" y="-22" type="curve" smooth="yes"/>
      <point x="605" y="-22"/>
      <point x="699" y="80"/>
      <point x="699" y="194" type="curve" smooth="yes"/>
      <point x="698" y="309"/>
      <point x="621" y="394"/>
      <point x="501" y="394" type="curve" smooth="yes"/>
      <point x="381" y="394"/>
      <point x="283" y="293"/>
      <point x="284" y="178" type="curve" smooth="yes"/>
      <point x="285" y="64"/>
      <point x="367" y="-22"/>
    </contour>
  </outline>
</glyph>
<glyph name="F" format="1">
  <advance width="1163"/>
  <unicode hex="0046"/>
  <outline>
    <contour>
      <point x="173" y="0" type="line"/>
      <point x="553" y="0" type="line"/>
      <point x="553" y="592" type="line"/>
      <point x="986" y="592" type="line"/>
      <point x="986" y="875" type="line"/>
      <point x="553" y="875" type="line"/>
      <point x="553" y="1238" type="line"/>
      <point x="1123" y="1238" type="line"/>
      <point x="1123" y="1522" type="line"/>
      <point x="173" y="1522" type="line"/>
    </contour>
    <contour>
      <point x="664" y="-170" type="move" name="btm"/>
    </contour>
    <contour>
      <point x="672" y="1701" type="move" name="top"/>
    </contour>
  </outline>
</glyph>
<glyph name="H" format="1">
  <advance width="1631"/>
  <unicode hex="0048"/>
  <outline>
    <contour>
      <point x="173" y="0" type="line"/>
      <point x="556" y="0" type="line"/>
      <point x="556" y="631" type="line"/>
      <point x="1078" y="631" type="line"/>
      <point x="1078" y="0" type="line"/>
      <point x="1458" y="0" type="line"/>
      <point x="1458" y="1522" type="line"/>
      <point x="1078" y="1522" type="line"/>
      <point x="1078" y="905" type="line"/>
      <point x="556" y="905" type="line"/>
      <point x="556" y="1522" type="line"/>
      <point x="173" y="1522" type="line"/>
    </contour>
    <contour>
      <point x="784" y="-170" type="move" name="btm"/>
    </contour>
    <contour>
      <point x="815" y="1700" type="move" name="top"/>
    </contour>
  </outline>
</glyph>
<glyph name="I" format="1">
  <advance width="754"/>
  <unicode hex="0049"/>
  <outline>
    <contour>
      <point x="185" y="0" type="line"/>
      <point x="569" y="0" type="line"/>
      <point x="569" y="1522" type="line"/>
      <point x="185" y="1522" type="line"/>
    </contour>
    <contour>
      <point x="377" y="-170" type="move" name="btm"/>
    </contour>
    <contour>
      <point x="377" y="1700" type="move" name="top"/>
    </contour>
  </outline>
</glyph>
<glyph name="L" format="1">
  <advance width="1122"/>
  <unicode hex="004C"/>
  <outline>
    <contour>
      <point x="173" y="0" type="line"/>
      <point x="1062" y="0" type="line"/>
      <point x="1062" y="287" type="line"/>
      <point x="560" y="287" type="line"/>
      <point x="560" y="1522" type="line"/>
      <point x="173" y="1522" type="line"/>
    </contour>
    <contour>
      <point x="604" y="-170" type="move" name="btm"/>
    </contour>
    <contour>
      <point x="364" y="1700" type="move" name="top"/>
    </contour>
  </outline>
</glyph>
<glyph name="M" format="1">
  <advance width="1982"/>
  <unicode hex="004D"/>
  <outline>
    <contour>
      <point x="64" y="-1" type="line"/>
      <point x="416" y="0" type="line"/>
      <point x="476" y="809" type="line"/>
      <point x="502" y="1247" type="line"/>
      <point x="602" y="797" type="line"/>
      <point x="824" y="-9" type="line"/>
      <point x="1161" y="-9" type="line"/>
      <point x="1365" y="797" type="line"/>
      <point x="1460" y="1247" type="line"/>
      <point x="1483" y="809" type="line"/>
      <point x="1553" y="0" type="line"/>
      <point x="1919" y="0" type="line"/>
      <point x="1725" y="1522" type="line"/>
      <point x="1226" y="1522" type="line"/>
      <point x="1062" y="741" type="line"/>
      <point x="1007" y="386" type="line"/>
      <point x="938" y="741" type="line"/>
      <point x="753" y="1522" type="line"/>
      <point x="240" y="1522" type="line"/>
    </contour>
    <contour>
      <point x="1001" y="-170" type="move" name="btm"/>
    </contour>
    <contour>
      <point x="1001" y="1700" type="move" name="top"/>
    </contour>
  </outline>
</glyph>
<glyph name="N" format="1">
  <advance width="1631"/>
  <unicode hex="004E"/>
  <outline>
    <contour>
      <point x="173" y="0" type="line"/>
      <point x="518" y="0" type="line"/>
      <point x="518" y="658" type="line"/>
      <point x="443" y="1282" type="line"/>
      <point x="358" y="1282" type="line"/>
      <point x="582" y="815" type="line"/>
      <point x="1075" y="0" type="line"/>
      <point x="1458" y="0" type="line"/>
      <point x="1458" y="1522" type="line"/>
      <point x="1113" y="1522" type="line"/>
      <point x="1113" y="852" type="line"/>
      <point x="1174" y="277" type="line"/>
      <point x="1244" y="277" type="line"/>
      <point x="1048" y="687" type="line"/>
      <point x="529" y="1522" type="line"/>
      <point x="173" y="1522" type="line"/>
    </contour>
    <contour>
      <point x="781" y="-170" type="move" name="btm"/>
    </contour>
    <contour>
      <point x="822" y="1700" type="move" name="top"/>
    </contour>
  </outline>
</glyph>
<glyph name="P" format="1">
  <advance width="1392"/>
  <unicode hex="0050"/>
  <outline>
    <contour>
      <point x="173" y="0" type="line"/>
      <point x="555" y="0" type="line"/>
      <point x="555" y="441" type="line"/>
      <point x="587" y="440"/>
      <point x="630" y="439"/>
      <point x="710" y="439" type="curve" smooth="yes"/>
      <point x="1117" y="439"/>
      <point x="1336" y="640"/>
      <point x="1336" y="1001" type="curve" smooth="yes"/>
      <point x="1336" y="1397"/>
      <point x="1116" y="1538"/>
      <point x="749" y="1538" type="curve" smooth="yes"/>
      <point x="597" y="1538"/>
      <point x="461" y="1522"/>
      <point x="321" y="1522" type="curve" smooth="yes"/>
      <point x="173" y="1522" type="line"/>
    </contour>
    <contour>
      <point x="555" y="720" type="curve"/>
      <point x="555" y="1261" type="line"/>
      <point x="598" y="1268"/>
      <point x="655" y="1271"/>
      <point x="702" y="1272" type="curve" smooth="yes"/>
      <point x="881" y="1277"/>
      <point x="963" y="1168"/>
      <point x="963" y="1003" type="curve" smooth="yes"/>
      <point x="963" y="790"/>
      <point x="853" y="712"/>
      <point x="710" y="712" type="curve" smooth="yes"/>
      <point x="648" y="712"/>
      <point x="597" y="716"/>
    </contour>
    <contour>
      <point x="703" y="-170" type="move" name="btm"/>
    </contour>
    <contour>
      <point x="769" y="1701" type="move" name="top"/>
    </contour>
  </outline>
</glyph>
<glyph name="Q" format="1">
  <advance width="1603"/>
  <unicode hex="0051"/>
  <outline>
    <contour>
      <point x="1302" y="-355" type="curve" smooth="yes"/>
      <point x="1399" y="-355"/>
      <point x="1508" y="-328"/>
      <point x="1544" y="-309" type="curve"/>
      <point x="1544" y="-53" type="line"/>
      <point x="1504" y="-67"/>
      <point x="1403" y="-82"/>
      <point x="1346" y="-82" type="curve" smooth="yes"/>
      <point x="1160" y="-82"/>
      <point x="1010" y="-66"/>
      <point x="974" y="56" type="curve"/>
      <point x="870" y="56" type="line"/>
      <point x="689" y="8" type="line"/>
      <point x="763" y="-260"/>
      <point x="964" y="-355"/>
    </contour>
    <component base="O"/>
    <contour>
      <point x="802" y="-170" type="move" name="btm"/>
    </contour>
    <contour>
      <point x="802" y="1700" type="move" name="top"/>
    </contour>
  </outline>
</glyph>
<glyph name="R" format="1">
  <advance width="1470"/>
  <unicode hex="0052"/>
  <outline>
    <contour>
      <point x="553" y="0" type="line"/>
      <point x="553" y="538" type="line"/>
      <point x="790" y="538"/>
      <point x="844" y="555"/>
      <point x="924" y="570" type="curve" smooth="yes"/>
      <point x="1163" y="606"/>
      <point x="1329" y="744"/>
      <point x="1329" y="1055" type="curve" smooth="yes"/>
      <point x="1329" y="1437"/>
      <point x="1031" y="1538"/>
      <point x="762" y="1538" type="curve" smooth="yes"/>
      <point x="544" y="1538"/>
      <point x="411" y="1522"/>
      <point x="304" y="1522" type="curve" smooth="yes"/>
      <point x="173" y="1522" type="line"/>
      <point x="173" y="0" type="line"/>
    </contour>
    <contour>
      <point x="553" y="802" type="curve"/>
      <point x="553" y="1251" type="line"/>
      <point x="600" y="1264"/>
      <point x="659" y="1269"/>
      <point x="715" y="1269" type="curve" smooth="yes"/>
      <point x="915" y="1269"/>
      <point x="963" y="1162"/>
      <point x="963" y="1048" type="curve" smooth="yes"/>
      <point x="963" y="908"/>
      <point x="895" y="795"/>
      <point x="740" y="795" type="curve" smooth="yes"/>
      <point x="690" y="794"/>
      <point x="593" y="797"/>
    </contour>
    <contour>
      <point x="1012" y="0" type="curve"/>
      <point x="1432" y="0" type="line"/>
      <point x="1369" y="110" type="line" smooth="yes"/>
      <point x="1254" y="309"/>
      <point x="1197" y="576"/>
      <point x="1042" y="645" type="curve"/>
      <point x="801" y="612" type="line"/>
      <point x="713" y="542" type="line"/>
      <point x="840" y="540"/>
      <point x="875" y="291"/>
      <point x="957" y="108" type="curve" smooth="yes"/>
      <point x="986" y="42"/>
      <point x="995" y="21"/>
    </contour>
    <contour>
      <point x="750" y="-170" type="move" name="btm"/>
    </contour>
    <contour>
      <point x="772" y="1700" type="move" name="top"/>
    </contour>
  </outline>
</glyph>
<glyph name="V" format="1">
  <advance width="1410"/>
  <unicode hex="0056"/>
  <outline>
    <contour>
      <point x="541" y="-4" type="line"/>
      <point x="873" y="-4" type="line"/>
      <point x="1422" y="1522" type="line"/>
      <point x="1016" y="1522" type="line"/>
      <point x="789" y="753" type="line"/>
      <point x="713" y="457" type="line"/>
      <point x="637" y="753" type="line"/>
      <point x="394" y="1522" type="line"/>
      <point x="-12" y="1522" type="line"/>
    </contour>
    <contour>
      <point x="707" y="-170" type="move" name="btm"/>
    </contour>
    <contour>
      <point x="707" y="1701" type="move" name="top"/>
    </contour>
  </outline>
</glyph>
<glyph name="W" format="1">
  <advance width="1998"/>
  <unicode hex="0057"/>
  <outline>
    <contour>
      <point x="387" y="-10" type="line"/>
      <point x="755" y="-10" type="line"/>
      <point x="948" y="784" type="line"/>
      <point x="1038" y="1443" type="line"/>
      <point x="940" y="1443" type="line"/>
      <point x="1040" y="785" type="line"/>
      <point x="1235" y="-10" type="line"/>
      <point x="1610" y="-10" type="line"/>
      <point x="2011" y="1522" type="line"/>
      <point x="1644" y="1522" type="line"/>
      <point x="1486" y="672" type="line"/>
      <point x="1421" y="173" type="line"/>
      <point x="1467" y="173" type="line"/>
      <point x="1385" y="672" type="line"/>
      <point x="1178" y="1522" type="line"/>
      <point x="831" y="1522" type="line"/>
      <point x="630" y="672" type="line"/>
      <point x="555" y="174" type="line"/>
      <point x="593" y="174" type="line"/>
      <point x="528" y="672" type="line"/>
      <point x="369" y="1522" type="line"/>
      <point x="-13" y="1522" type="line"/>
    </contour>
    <contour>
      <point x="987" y="-170" type="move" name="btm"/>
    </contour>
    <contour>
      <point x="987" y="1700" type="move" name="top"/>
    </contour>
  </outline>
</glyph>
<glyph name="X" format="1">
  <advance width="1395"/>
  <unicode hex="0058"/>
  <outline>
    <contour>
      <point x="14" y="0" type="line"/>
      <point x="416" y="0" type="line"/>
      <point x="622" y="392" type="line"/>
      <point x="724" y="604" type="line"/>
      <point x="646" y="603" type="line"/>
      <point x="749" y="392" type="line"/>
      <point x="962" y="0" type="line"/>
      <point x="1384" y="0" type="line"/>
      <point x="903" y="798" type="line"/>
      <point x="898" y="703" type="line"/>
      <point x="1370" y="1522" type="line"/>
      <point x="970" y="1522" type="line"/>
      <point x="773" y="1140" type="line"/>
      <point x="683" y="962" type="line"/>
      <point x="747" y="962" type="line"/>
      <point x="654" y="1140" type="line"/>
      <point x="445" y="1523" type="line"/>
      <point x="26" y="1522" type="line"/>
      <point x="492" y="731" type="line"/>
      <point x="497" y="837" type="line"/>
    </contour>
    <contour>
      <point x="684" y="-170" type="move" name="btm"/>
    </contour>
    <contour>
      <point x="684" y="1700" type="move" name="top"/>
    </contour>
  </outline>
</glyph>
<glyph name="Y" format="1">
  <advance width="1289"/>
  <unicode hex="0059"/>
  <outline>
    <contour>
      <point x="837" y="0" type="line"/>
      <point x="837" y="606" type="line"/>
      <point x="803" y="468" type="line"/>
      <point x="1342" y="1522" type="line"/>
      <point x="937" y="1522" type="line"/>
      <point x="708" y="1030" type="line"/>
      <point x="631" y="789" type="line"/>
      <point x="635" y="789"/>
      <point x="678" y="789"/>
      <point x="681" y="789" type="curve"/>
      <point x="590" y="1030" type="line"/>
      <point x="364" y="1522" type="line"/>
      <point x="-53" y="1522" type="line"/>
      <point x="481" y="471" type="line"/>
      <point x="448" y="606" type="line"/>
      <point x="448" y="0" type="line"/>
    </contour>
    <contour>
      <point x="664" y="-170" type="move" name="btm"/>
    </contour>
    <contour>
      <point x="664" y="1700" type="move" name="top"/>
    </contour>
  </outline>
</glyph>
<glyph name="Z" format="1">
  <advance width="1302"/>
  <unicode hex="005A"/>
  <outline>
    <contour>
      <point x="78" y="0" type="line"/>
      <point x="1206" y="0" type="line"/>
      <point x="1206" y="284" type="line"/>
      <point x="557" y="284" type="line"/>
      <point x="631" y="389" type="line"/>
      <point x="1244" y="1441" type="line"/>
      <point x="1203" y="1522" type="line"/>
      <point x="108" y="1522" type="line"/>
      <point x="108" y="1244" type="line"/>
      <point x="728" y="1244" type="line"/>
      <point x="661" y="1146" type="line"/>
      <point x="36" y="84" type="line"/>
    </contour>
    <contour>
      <point x="633" y="-170" type="move" name="btm"/>
    </contour>
    <contour>
      <point x="674" y="1700" type="move" name="top"/>
    </contour>
  </outline>
</glyph>
<glyph name="underscore" format="1">
  <advance width="1700"/>
  <unicode hex="005F"/>
  <outline>
    <contour>
      <point x="-36" y="-408" type="line"/>
      <point x="1736" y="-408" type="line"/>
      <point x="1736" y="-233" type="line"/>
      <point x="-36" y="-233" type="line"/>
    </contour>
  </outline>
</glyph>
<glyph name="grave" format="1">
  <advance width="700"/>
  <unicode hex="0060"/>
  <outline>
    <contour>
      <point x="652" y="1380" type="line"/>
      <point x="548" y="1474"/>
      <point x="393" y="1686"/>
      <point x="309" y="1825" type="curve"/>
      <point x="65" y="1636" type="line"/>
      <point x="135" y="1480"/>
      <point x="391" y="1267"/>
      <point x="483" y="1222" type="curve"/>
    </contour>
    <contour>
      <point x="520" y="1701" type="move" name="_top"/>
    </contour>
  </outline>
</glyph>
<glyph name="b" format="1">
  <advance width="1381"/>
  <unicode hex="0062"/>
  <outline>
    <contour>
      <point x="530" y="175" type="line"/>
      <point x="530" y="989" type="line"/>
      <point x="520" y="995" type="line"/>
      <point x="530" y="1250" type="line"/>
      <point x="530" y="1661" type="line"/>
      <point x="159" y="1661" type="line"/>
      <point x="159" y="64" type="line"/>
    </contour>
    <contour>
      <point x="159" y="64" type="line"/>
      <point x="187" y="41"/>
      <point x="453" y="-21"/>
      <point x="692" y="-21" type="curve" smooth="yes"/>
      <point x="1058" y="-21"/>
      <point x="1296" y="226"/>
      <point x="1296" y="612" type="curve" smooth="yes"/>
      <point x="1296" y="982"/>
      <point x="1087" y="1156"/>
      <point x="844" y="1156" type="curve" smooth="yes"/>
      <point x="641" y="1156"/>
      <point x="539" y="1062"/>
      <point x="492" y="1012" type="curve"/>
      <point x="530" y="821" type="line"/>
      <point x="565" y="848"/>
      <point x="639" y="881"/>
      <point x="717" y="881" type="curve" smooth="yes"/>
      <point x="830" y="881"/>
      <point x="910" y="816"/>
      <point x="909" y="590" type="curve" smooth="yes"/>
      <point x="908" y="358"/>
      <point x="813" y="228"/>
      <point x="686" y="228" type="curve" smooth="yes"/>
      <point x="606" y="228"/>
      <point x="551" y="238"/>
      <point x="530" y="262" type="curve"/>
    </contour>
    <contour>
      <point x="794" y="-170" type="move" name="btm"/>
    </contour>
    <contour>
      <point x="888" y="1701" type="move" name="top"/>
    </contour>
  </outline>
</glyph>
<glyph name="c" format="1">
  <advance width="1048"/>
  <unicode hex="0063"/>
  <outline>
    <contour>
      <point x="85" y="559" type="curve" smooth="yes"/>
      <point x="85" y="230"/>
      <point x="260" y="-16"/>
      <point x="637" y="-16" type="curve" smooth="yes"/>
      <point x="784" y="-16"/>
      <point x="932" y="35"/>
      <point x="995" y="100" type="curve"/>
      <point x="950" y="309" type="line"/>
      <point x="901" y="286"/>
      <point x="814" y="268"/>
      <point x="717" y="268" type="curve" smooth="yes"/>
      <point x="573" y="268"/>
      <point x="456" y="350"/>
      <point x="460" y="585" type="curve" smooth="yes"/>
      <point x="464" y="800"/>
      <point x="596" y="868"/>
      <point x="714" y="868" type="curve" smooth="yes"/>
      <point x="824" y="868"/>
      <point x="893" y="846"/>
      <point x="937" y="821" type="curve"/>
      <point x="979" y="1099" type="line"/>
      <point x="943" y="1126"/>
      <point x="818" y="1156"/>
      <point x="664" y="1156" type="curve" smooth="yes"/>
      <point x="265" y="1156"/>
      <point x="85" y="892"/>
    </contour>
    <contour>
      <point x="607" y="-170" type="move" name="btm"/>
    </contour>
    <contour>
      <point x="627" y="1701" type="move" name="top"/>
    </contour>
  </outline>
</glyph>
<glyph name="d" format="1">
  <advance width="1381"/>
  <unicode hex="0064"/>
  <outline>
    <contour>
      <point x="937" y="-16" type="curve" smooth="yes"/>
      <point x="1221" y="-16" type="line"/>
      <point x="1221" y="1662" type="line"/>
      <point x="851" y="1662" type="line"/>
      <point x="851" y="1250" type="line"/>
      <point x="861" y="914" type="line"/>
      <point x="851" y="906" type="line"/>
      <point x="851" y="158" type="line"/>
      <point x="882" y="135" type="line"/>
      <point x="882" y="38" type="line" smooth="yes"/>
      <point x="882" y="4"/>
      <point x="900" y="-16"/>
    </contour>
    <contour>
      <point x="537" y="-16" type="curve" smooth="yes"/>
      <point x="740" y="-16"/>
      <point x="844" y="78"/>
      <point x="891" y="128" type="curve"/>
      <point x="853" y="315" type="line"/>
      <point x="814" y="287"/>
      <point x="736" y="261"/>
      <point x="664" y="261" type="curve" smooth="yes"/>
      <point x="546" y="261"/>
      <point x="472" y="336"/>
      <point x="473" y="549" type="curve" smooth="yes"/>
      <point x="474" y="784"/>
      <point x="565" y="900"/>
      <point x="695" y="900" type="curve" smooth="yes"/>
      <point x="763" y="900"/>
      <point x="823" y="891"/>
      <point x="853" y="867" type="curve"/>
      <point x="917" y="1099" type="line"/>
      <point x="892" y="1118"/>
      <point x="803" y="1156"/>
      <point x="666" y="1156" type="curve" smooth="yes"/>
      <point x="317" y="1156"/>
      <point x="85" y="917"/>
      <point x="85" y="531" type="curve" smooth="yes"/>
      <point x="85" y="161"/>
      <point x="294" y="-16"/>
    </contour>
    <contour>
      <point x="594" y="-170" type="move" name="btm"/>
    </contour>
    <contour>
      <point x="447" y="1701" type="move" name="top"/>
    </contour>
  </outline>
</glyph>
<glyph name="e" format="1">
  <advance width="1221"/>
  <unicode hex="0065"/>
  <outline>
    <contour>
      <point x="653" y="-16" type="curve" smooth="yes"/>
      <point x="857" y="-16"/>
      <point x="1028" y="46"/>
      <point x="1103" y="107" type="curve"/>
      <point x="1046" y="304" type="line"/>
      <point x="991" y="274"/>
      <point x="850" y="246"/>
      <point x="740" y="246" type="curve" smooth="yes"/>
      <point x="561" y="246"/>
      <point x="457" y="324"/>
      <point x="453" y="523" type="curve" smooth="yes"/>
      <point x="449" y="828"/>
      <point x="521" y="917"/>
      <point x="649" y="917" type="curve" smooth="yes"/>
      <point x="762" y="917"/>
      <point x="802" y="834"/>
      <point x="793" y="668" type="curve"/>
      <point x="296" y="668" type="line"/>
      <point x="276" y="483" type="line"/>
      <point x="1124" y="483" type="line"/>
      <point x="1131" y="532"/>
      <point x="1136" y="610"/>
      <point x="1136" y="693" type="curve" smooth="yes"/>
      <point x="1133" y="1059"/>
      <point x="900" y="1156"/>
      <point x="657" y="1156" type="curve" smooth="yes"/>
      <point x="294" y="1156"/>
      <point x="85" y="907"/>
      <point x="85" y="575" type="curve" smooth="yes"/>
      <point x="85" y="205"/>
      <point x="285" y="-16"/>
    </contour>
    <contour>
      <point x="651" y="-170" type="move" name="btm"/>
    </contour>
    <contour>
      <point x="653" y="1701" type="move" name="top"/>
    </contour>
  </outline>
</glyph>
<glyph name="f" format="1">
  <advance width="881"/>
  <unicode hex="0066"/>
  <outline>
    <contour>
      <point x="222" y="0" type="line"/>
      <point x="594" y="0" type="line"/>
      <point x="594" y="897" type="line"/>
      <point x="841" y="897" type="line"/>
      <point x="841" y="1140" type="line"/>
      <point x="594" y="1140" type="line"/>
      <point x="594" y="1243" type="line" smooth="yes"/>
      <point x="594" y="1376"/>
      <point x="651" y="1432"/>
      <point x="738" y="1432" type="curve" smooth="yes"/>
      <point x="809" y="1432"/>
      <point x="859" y="1420"/>
      <point x="884" y="1407" type="curve"/>
      <point x="884" y="1661" type="line"/>
      <point x="858" y="1667"/>
      <point x="780" y="1684"/>
      <point x="664" y="1684" type="curve" smooth="yes"/>
      <point x="455" y="1684"/>
      <point x="222" y="1585"/>
      <point x="222" y="1257" type="curve" smooth="yes"/>
      <point x="222" y="1140" type="line"/>
      <point x="79" y="1113" type="line"/>
      <point x="79" y="897" type="line"/>
      <point x="222" y="897" type="line"/>
    </contour>
    <contour>
      <point x="419" y="-170" type="move" name="btm"/>
    </contour>
    <contour>
      <point x="271" y="2022" type="move" name="top"/>
    </contour>
  </outline>
</glyph>
<glyph name="l" format="1">
  <advance width="697"/>
  <unicode hex="006C"/>
  <outline>
    <contour>
      <point x="163" y="0" type="line"/>
      <point x="534" y="0" type="line"/>
      <point x="534" y="1662" type="line"/>
      <point x="163" y="1662" type="line"/>
    </contour>
    <contour>
      <point x="343" y="-170" type="move" name="btm"/>
    </contour>
    <contour>
      <point x="346" y="1700" type="move" name="top"/>
    </contour>
  </outline>
</glyph>
<glyph name="m" format="1">
  <advance width="2065"/>
  <unicode hex="006D"/>
  <outline>
    <contour>
      <point x="163" y="0" type="line"/>
      <point x="533" y="0" type="line"/>
      <point x="533" y="793" type="line"/>
      <point x="583" y="841"/>
      <point x="663" y="867"/>
      <point x="716" y="867" type="curve" smooth="yes"/>
      <point x="824" y="869"/>
      <point x="858" y="817"/>
      <point x="858" y="652" type="curve" smooth="yes"/>
      <point x="858" y="0" type="line"/>
      <point x="1226" y="0" type="line"/>
      <point x="1226" y="721" type="line" smooth="yes"/>
      <point x="1226" y="1049"/>
      <point x="1111" y="1164"/>
      <point x="882" y="1158" type="curve" smooth="yes"/>
      <point x="733" y="1155"/>
      <point x="587" y="1082"/>
      <point x="510" y="1018" type="curve"/>
      <point x="501" y="1140" type="line"/>
      <point x="163" y="1140" type="line"/>
    </contour>
    <contour>
      <point x="1213" y="784" type="line"/>
      <point x="1250" y="820"/>
      <point x="1323" y="867"/>
      <point x="1400" y="867" type="curve" smooth="yes"/>
      <point x="1510" y="869"/>
      <point x="1544" y="819"/>
      <point x="1544" y="653" type="curve" smooth="yes"/>
      <point x="1544" y="0" type="line"/>
      <point x="1915" y="0" type="line"/>
      <point x="1915" y="719" type="line" smooth="yes"/>
      <point x="1915" y="1053"/>
      <point x="1777" y="1159"/>
      <point x="1548" y="1158" type="curve" smooth="yes"/>
      <point x="1358" y="1159"/>
      <point x="1204" y="1061"/>
      <point x="1151" y="1012" type="curve"/>
    </contour>
    <contour>
      <point x="1034" y="-170" type="move" name="btm"/>
    </contour>
    <contour>
      <point x="1035" y="1700" type="move" name="top"/>
    </contour>
  </outline>
</glyph>
<glyph name="o" format="1">
  <advance width="1330"/>
  <unicode hex="006F"/>
  <outline>
    <contour>
      <point x="655" y="-16" type="curve" smooth="yes"/>
      <point x="997" y="-16"/>
      <point x="1239" y="181"/>
      <point x="1244" y="547" type="curve" smooth="yes"/>
      <point x="1249" y="874"/>
      <point x="1098" y="1156"/>
      <point x="676" y="1156" type="curve" smooth="yes"/>
      <point x="334" y="1156"/>
      <point x="92" y="959"/>
      <point x="86" y="593" type="curve" smooth="yes"/>
      <point x="82" y="266"/>
      <point x="233" y="-16"/>
    </contour>
    <contour>
      <point x="663" y="239" type="curve" smooth="yes"/>
      <point x="519" y="239"/>
      <point x="471" y="394"/>
      <point x="471" y="582" type="curve" smooth="yes"/>
      <point x="471" y="789"/>
      <point x="520" y="899"/>
      <point x="669" y="899" type="curve" smooth="yes"/>
      <point x="813" y="899"/>
      <point x="859" y="748"/>
      <point x="859" y="564" type="curve" smooth="yes"/>
      <point x="859" y="346"/>
      <point x="809" y="239"/>
    </contour>
    <contour>
      <point x="648" y="-170" type="move" name="btm"/>
    </contour>
    <contour>
      <point x="672" y="1700" type="move" name="top"/>
    </contour>
  </outline>
</glyph>
<glyph name="q" format="1">
  <advance width="1382"/>
  <unicode hex="0071"/>
  <outline>
    <contour>
      <point x="853" y="-139" type="line"/>
      <point x="853" y="-506" type="line"/>
      <point x="1223" y="-506" type="line"/>
      <point x="1223" y="1140" type="line"/>
      <point x="904" y="1097" type="line"/>
      <point x="876" y="1002" type="line"/>
      <point x="853" y="976" type="line"/>
      <point x="853" y="197" type="line"/>
      <point x="859" y="109" type="line"/>
    </contour>
    <contour>
      <point x="539" y="-16" type="curve" smooth="yes"/>
      <point x="742" y="-16"/>
      <point x="845" y="78"/>
      <point x="892" y="128" type="curve"/>
      <point x="854" y="315" type="line"/>
      <point x="815" y="287"/>
      <point x="738" y="261"/>
      <point x="666" y="261" type="curve" smooth="yes"/>
      <point x="548" y="261"/>
      <point x="474" y="336"/>
      <point x="475" y="549" type="curve" smooth="yes"/>
      <point x="476" y="784"/>
      <point x="567" y="900"/>
      <point x="697" y="900" type="curve" smooth="yes"/>
      <point x="765" y="900"/>
      <point x="823" y="891"/>
      <point x="854" y="867" type="curve"/>
      <point x="992" y="1087" type="line"/>
      <point x="929" y="1120"/>
      <point x="805" y="1156"/>
      <point x="668" y="1156" type="curve" smooth="yes"/>
      <point x="319" y="1156"/>
      <point x="85" y="917"/>
      <point x="85" y="531" type="curve" smooth="yes"/>
      <point x="85" y="161"/>
      <point x="296" y="-16"/>
    </contour>
    <contour>
      <point x="592" y="-170" type="move" name="btm"/>
    </contour>
    <contour>
      <point x="598" y="1701" type="move" name="top"/>
    </contour>
  </outline>
</glyph>
<glyph name="t" format="1">
  <advance width="926"/>
  <unicode hex="0074"/>
  <outline>
    <contour>
      <point x="522" y="-16" type="curve" smooth="yes"/>
      <point x="688" y="-16"/>
      <point x="847" y="48"/>
      <point x="902" y="100" type="curve"/>
      <point x="858" y="306" type="line"/>
      <point x="823" y="282"/>
      <point x="742" y="261"/>
      <point x="691" y="261" type="curve" smooth="yes"/>
      <point x="589" y="261"/>
      <point x="559" y="278"/>
      <point x="559" y="491" type="curve" smooth="yes"/>
      <point x="559" y="897" type="line"/>
      <point x="855" y="897" type="line"/>
      <point x="855" y="1140" type="line"/>
      <point x="559" y="1140" type="line"/>
      <point x="559" y="1400" type="line"/>
      <point x="334" y="1400" type="line"/>
      <point x="308" y="1338"/>
      <point x="277" y="1256"/>
      <point x="254" y="1208" type="curve" smooth="yes"/>
      <point x="223" y="1144"/>
      <point x="157" y="1122"/>
      <point x="57" y="1093" type="curve"/>
      <point x="57" y="897" type="line"/>
      <point x="189" y="897" type="line"/>
      <point x="189" y="355" type="line" smooth="yes"/>
      <point x="189" y="107"/>
      <point x="277" y="-16"/>
    </contour>
    <contour>
      <point x="427" y="-170" type="move" name="btm"/>
    </contour>
    <contour>
      <point x="443" y="1870" type="move" name="top"/>
    </contour>
  </outline>
</glyph>
<glyph name="v" format="1">
  <advance width="1203"/>
  <unicode hex="0076"/>
  <outline>
    <contour>
      <point x="427" y="-16" type="line"/>
      <point x="781" y="-16" type="line"/>
      <point x="1208" y="1140" type="line"/>
      <point x="820" y="1140" type="line"/>
      <point x="678" y="643" type="line"/>
      <point x="580" y="214" type="line"/>
      <point x="646" y="214" type="line"/>
      <point x="539" y="643" type="line"/>
      <point x="392" y="1140" type="line"/>
      <point x="-5" y="1140" type="line"/>
    </contour>
  </outline>
</glyph>
<glyph name="asciitilde" format="1">
  <advance width="1446"/>
  <unicode hex="007E"/>
  <outline>
    <contour>
      <point x="334" y="686" type="line"/>
      <point x="377" y="730"/>
      <point x="432" y="790"/>
      <point x="529" y="790" type="curve" smooth="yes"/>
      <point x="688" y="790"/>
      <point x="706" y="632"/>
      <point x="916" y="632" type="curve" smooth="yes"/>
      <point x="1097" y="632"/>
      <point x="1235" y="773"/>
      <point x="1256" y="855" type="curve"/>
      <point x="1129" y="1017" type="line"/>
      <point x="1088" y="975"/>
      <point x="1030" y="913"/>
      <point x="932" y="913" type="curve" smooth="yes"/>
      <point x="787" y="913"/>
      <point x="746" y="1069"/>
      <point x="535" y="1069" type="curve" smooth="yes"/>
      <point x="352" y="1069"/>
      <point x="212" y="908"/>
      <point x="190" y="834" type="curve"/>
    </contour>
  </outline>
</glyph>
<glyph name="cent" format="1">
  <advance width="1200"/>
  <unicode hex="00A2"/>
  <outline>
    <contour>
      <point x="581" y="1068" type="line"/>
      <point x="767" y="1068" type="line"/>
      <point x="774" y="1377" type="line"/>
      <point x="589" y="1377" type="line"/>
    </contour>
    <contour>
      <point x="551" y="-216" type="line"/>
      <point x="737" y="-216" type="line"/>
      <point x="743" y="93" type="line"/>
      <point x="558" y="93" type="line"/>
    </contour>
    <component base="c" xOffset="51"/>
  </outline>
</glyph>
<glyph name="currency" format="1">
  <advance width="1565"/>
  <unicode hex="00A4"/>
  <outline>
    <contour>
      <point x="781" y="312" type="curve" smooth="yes"/>
      <point x="1031" y="312"/>
      <point x="1239" y="512"/>
      <point x="1239" y="773" type="curve" smooth="yes"/>
      <point x="1239" y="1033"/>
      <point x="1031" y="1235"/>
      <point x="781" y="1235" type="curve" smooth="yes"/>
      <point x="531" y="1235"/>
      <point x="325" y="1033"/>
      <point x="325" y="773" type="curve"/>
      <point x="325" y="512"/>
      <point x="532" y="312"/>
    </contour>
    <contour>
      <point x="783" y="566" type="curve" smooth="yes"/>
      <point x="668" y="566"/>
      <point x="579" y="661"/>
      <point x="579" y="773" type="curve" smooth="yes"/>
      <point x="579" y="885"/>
      <point x="668" y="979"/>
      <point x="783" y="979" type="curve" smooth="yes"/>
      <point x="899" y="979"/>
      <point x="984" y="885"/>
      <point x="984" y="773" type="curve" smooth="yes"/>
      <point x="984" y="662"/>
      <point x="899" y="566"/>
    </contour>
    <contour>
      <point x="428" y="1005" type="line"/>
      <point x="576" y="1164" type="line"/>
      <point x="363" y="1385" type="line"/>
      <point x="215" y="1225" type="line"/>
    </contour>
    <contour>
      <point x="1138" y="1000" type="line"/>
      <point x="1371" y="1235" type="line"/>
      <point x="1221" y="1396" type="line"/>
      <point x="988" y="1161" type="line"/>
    </contour>
    <contour>
      <point x="363" y="162" type="line"/>
      <point x="577" y="381" type="line"/>
      <point x="427" y="538" type="line"/>
      <point x="213" y="319" type="line"/>
    </contour>
    <contour>
      <point x="1203" y="160" type="line"/>
      <point x="1351" y="318" type="line"/>
      <point x="1134" y="542" type="line"/>
      <point x="985" y="383" type="line"/>
    </contour>
  </outline>
</glyph>
<glyph name="section" format="1">
  <advance width="1404"/>
  <unicode hex="00A7"/>
  <outline>
    <contour>
      <point x="240" y="1326" type="curve" smooth="yes"/>
      <point x="240" y="890"/>
      <point x="943" y="930"/>
      <point x="943" y="634" type="curve" smooth="yes"/>
      <point x="943" y="550"/>
      <point x="853" y="405"/>
      <point x="814" y="352" type="curve"/>
      <point x="944" y="305" type="line"/>
      <point x="1110" y="400"/>
      <point x="1235" y="531"/>
      <point x="1235" y="707" type="curve" smooth="yes"/>
      <point x="1235" y="1130"/>
      <point x="582" y="1140"/>
      <point x="582" y="1312" type="curve" smooth="yes"/>
      <point x="582" y="1390"/>
      <point x="657" y="1415"/>
      <point x="751" y="1416" type="curve" smooth="yes"/>
      <point x="915" y="1417"/>
      <point x="1005" y="1364"/>
      <point x="1047" y="1333" type="curve"/>
      <point x="1097" y="1600" type="line"/>
      <point x="1037" y="1634"/>
      <point x="912" y="1673"/>
      <point x="719" y="1673" type="curve" smooth="yes"/>
      <point x="480" y="1673"/>
      <point x="240" y="1568"/>
    </contour>
    <contour>
      <point x="1178" y="180" type="curve" smooth="yes"/>
      <point x="1178" y="633"/>
      <point x="477" y="551"/>
      <point x="477" y="828" type="curve" smooth="yes"/>
      <point x="477" y="912"/>
      <point x="567" y="1007"/>
      <point x="606" y="1060" type="curve"/>
      <point x="459" y="1121" type="line"/>
      <point x="297" y="1036"/>
      <point x="176" y="911"/>
      <point x="176" y="752" type="curve" smooth="yes"/>
      <point x="176" y="326"/>
      <point x="836" y="343"/>
      <point x="836" y="178" type="curve" smooth="yes"/>
      <point x="836" y="99"/>
      <point x="756" y="69"/>
      <point x="655" y="68" type="curve" smooth="yes"/>
      <point x="488" y="67"/>
      <point x="365" y="128"/>
      <point x="315" y="167" type="curve"/>
      <point x="265" y="-100" type="line"/>
      <point x="328" y="-143"/>
      <point x="495" y="-193"/>
      <point x="687" y="-193" type="curve" smooth="yes"/>
      <point x="929" y="-193"/>
      <point x="1178" y="-83"/>
    </contour>
  </outline>
</glyph>
<glyph name="dieresis" format="1">
  <advance width="1034"/>
  <unicode hex="00A8"/>
  <outline>
    <contour>
      <point x="251" y="1281" type="curve" smooth="yes"/>
      <point x="366" y="1281"/>
      <point x="455" y="1375"/>
      <point x="455" y="1486" type="curve" smooth="yes"/>
      <point x="455" y="1598"/>
      <point x="385" y="1675"/>
      <point x="268" y="1675" type="curve" smooth="yes"/>
      <point x="155" y="1675"/>
      <point x="62" y="1582"/>
      <point x="62" y="1471" type="curve" smooth="yes"/>
      <point x="62" y="1360"/>
      <point x="138" y="1281"/>
    </contour>
    <contour>
      <point x="769" y="1281" type="curve" smooth="yes"/>
      <point x="884" y="1281"/>
      <point x="972" y="1375"/>
      <point x="972" y="1486" type="curve" smooth="yes"/>
      <point x="972" y="1598"/>
      <point x="902" y="1675"/>
      <point x="786" y="1675" type="curve" smooth="yes"/>
      <point x="672" y="1675"/>
      <point x="580" y="1582"/>
      <point x="580" y="1471" type="curve" smooth="yes"/>
      <point x="580" y="1360"/>
      <point x="656" y="1281"/>
    </contour>
    <contour>
      <point x="517" y="1701" type="move" name="_top"/>
    </contour>
  </outline>
</glyph>
<glyph name="macron" format="1">
  <advance width="725"/>
  <unicode hex="00AF"/>
  <outline>
    <contour>
      <point x="53" y="1404" type="line"/>
      <point x="672" y="1404" type="line"/>
      <point x="672" y="1642" type="line"/>
      <point x="53" y="1642" type="line"/>
    </contour>
    <contour>
      <point x="362" y="1701" type="move" name="_top"/>
    </contour>
  </outline>
</glyph>
<glyph name="micro" format="1">
  <advance width="1407"/>
  <unicode hex="00B5"/>
  <outline>
    <contour>
      <point x="150" y="-371" type="line"/>
      <point x="485" y="-371" type="line"/>
      <point x="448" y="161" type="line"/>
      <point x="389" y="151" type="line"/>
      <point x="436" y="22"/>
      <point x="522" y="-16"/>
      <point x="664" y="-16" type="curve" smooth="yes"/>
      <point x="809" y="-16"/>
      <point x="880" y="59"/>
      <point x="913" y="120" type="curve"/>
      <point x="923" y="25"/>
      <point x="995" y="-18"/>
      <point x="1096" y="-18" type="curve" smooth="yes"/>
      <point x="1259" y="-18"/>
      <point x="1363" y="66"/>
      <point x="1377" y="87" type="curve"/>
      <point x="1346" y="266" type="line"/>
      <point x="1309" y="244"/>
      <point x="1274" y="239"/>
      <point x="1261" y="239" type="curve" smooth="yes"/>
      <point x="1239" y="239"/>
      <point x="1212" y="253"/>
      <point x="1212" y="315" type="curve" smooth="yes"/>
      <point x="1212" y="1140" type="line"/>
      <point x="842" y="1140" type="line"/>
      <point x="842" y="310" type="line"/>
      <point x="803" y="272"/>
      <point x="736" y="256"/>
      <point x="691" y="256" type="curve" smooth="yes"/>
      <point x="570" y="256"/>
      <point x="520" y="327"/>
      <point x="520" y="490" type="curve" smooth="yes"/>
      <point x="520" y="1140" type="line"/>
      <point x="150" y="1140" type="line"/>
    </contour>
  </outline>
</glyph>
<glyph name="AE" format="1">
  <advance width="1970"/>
  <unicode hex="00C6"/>
  <outline>
    <contour>
      <point x="-119" y="0" type="line"/>
      <point x="291" y="0" type="line"/>
      <point x="894" y="1399" type="line"/>
      <point x="602" y="1522" type="line"/>
    </contour>
    <contour>
      <point x="866" y="1522" type="line"/>
      <point x="602" y="1522" type="line"/>
      <point x="651" y="1376" type="line"/>
      <point x="918" y="1376" type="line"/>
    </contour>
    <contour>
      <point x="286" y="318" type="line"/>
      <point x="1043" y="318" type="line"/>
      <point x="1026" y="579" type="line"/>
      <point x="334" y="579" type="line"/>
    </contour>
    <contour>
      <point x="866" y="0" type="line"/>
      <point x="1883" y="0" type="line"/>
      <point x="1883" y="291" type="line"/>
      <point x="1244" y="291" type="line"/>
      <point x="1244" y="642" type="line"/>
      <point x="1688" y="642" type="line"/>
      <point x="1688" y="919" type="line"/>
      <point x="1244" y="919" type="line"/>
      <point x="1244" y="1238" type="line"/>
      <point x="1822" y="1238" type="line"/>
      <point x="1822" y="1522" type="line"/>
      <point x="866" y="1522" type="line"/>
    </contour>
    <contour>
      <point x="1411" y="-170" type="move" name="btm"/>
    </contour>
    <contour>
      <point x="1057" y="1700" type="move" name="top"/>
    </contour>
  </outline>
</glyph>
<glyph name="Eth" format="1">
  <advance width="1561"/>
  <unicode hex="00D0"/>
  <outline>
    <contour>
      <point x="60" y="675" type="line"/>
      <point x="850" y="675" type="line"/>
      <point x="850" y="913" type="line"/>
      <point x="60" y="913" type="line"/>
    </contour>
    <component base="D"/>
  </outline>
</glyph>
<glyph name="multiply" format="1">
  <advance width="1402"/>
  <unicode hex="00D7"/>
  <outline>
    <contour>
      <point x="149" y="392" type="line"/>
      <point x="335" y="206" type="line"/>
      <point x="701" y="593" type="line"/>
      <point x="1067" y="206" type="line"/>
      <point x="1254" y="392" type="line"/>
      <point x="876" y="777" type="line"/>
      <point x="1255" y="1172" type="line"/>
      <point x="1069" y="1351" type="line"/>
      <point x="703" y="952" type="line"/>
      <point x="335" y="1351" type="line"/>
      <point x="149" y="1172" type="line"/>
      <point x="528" y="775" type="line"/>
    </contour>
  </outline>
</glyph>
<glyph name="Oslash" format="1">
  <advance width="1603"/>
  <unicode hex="00D8"/>
  <outline>
    <contour>
      <point x="509" y="-234" type="line"/>
      <point x="1237" y="1783" type="line"/>
      <point x="1102" y="1811" type="line"/>
      <point x="375" y="-209" type="line"/>
    </contour>
    <contour>
      <point x="796" y="-16" type="curve" smooth="yes"/>
      <point x="1213" y="-8"/>
      <point x="1499" y="223"/>
      <point x="1509" y="763" type="curve" smooth="yes"/>
      <point x="1518" y="1246"/>
      <point x="1258" y="1550"/>
      <point x="826" y="1538" type="curve" smooth="yes"/>
      <point x="403" y="1526"/>
      <point x="103" y="1309"/>
      <point x="93" y="769" type="curve" smooth="yes"/>
      <point x="84" y="285"/>
      <point x="347" y="-25"/>
    </contour>
    <contour>
      <point x="803" y="263" type="curve" smooth="yes"/>
      <point x="589" y="263"/>
      <point x="485" y="470"/>
      <point x="485" y="758" type="curve" smooth="yes"/>
      <point x="485" y="1131"/>
      <point x="635" y="1252"/>
      <point x="819" y="1252" type="curve" smooth="yes"/>
      <point x="1022" y="1252"/>
      <point x="1117" y="1059"/>
      <point x="1117" y="774" type="curve" smooth="yes"/>
      <point x="1117" y="407"/>
      <point x="997" y="263"/>
    </contour>
  </outline>
</glyph>
<glyph name="germandbls" format="1">
  <advance width="1413"/>
  <unicode hex="00DF"/>
  <outline>
    <contour>
      <point x="176" y="0" type="line"/>
      <point x="550" y="0" type="line"/>
      <point x="550" y="953" type="line" smooth="yes"/>
      <point x="550" y="1248"/>
      <point x="638" y="1346"/>
      <point x="779" y="1346" type="curve" smooth="yes"/>
      <point x="871" y="1346"/>
      <point x="921" y="1294"/>
      <point x="921" y="1218" type="curve" smooth="yes"/>
      <point x="921" y="1046"/>
      <point x="729" y="1028"/>
      <point x="729" y="841" type="curve" smooth="yes"/>
      <point x="729" y="607"/>
      <point x="987" y="548"/>
      <point x="987" y="363" type="curve" smooth="yes"/>
      <point x="987" y="257"/>
      <point x="901" y="230"/>
      <point x="833" y="230" type="curve" smooth="yes"/>
      <point x="771" y="230"/>
      <point x="708" y="255"/>
      <point x="689" y="267" type="curve"/>
      <point x="689" y="20" type="line"/>
      <point x="718" y="3"/>
      <point x="821" y="-16"/>
      <point x="928" y="-16" type="curve" smooth="yes"/>
      <point x="1150" y="-16"/>
      <point x="1372" y="62"/>
      <point x="1372" y="370" type="curve" smooth="yes"/>
      <point x="1372" y="693"/>
      <point x="1054" y="778"/>
      <point x="1054" y="901" type="curve" smooth="yes"/>
      <point x="1054" y="1022"/>
      <point x="1287" y="1028"/>
      <point x="1287" y="1271" type="curve" smooth="yes"/>
      <point x="1287" y="1445"/>
      <point x="1122" y="1579"/>
      <point x="829" y="1579" type="curve" smooth="yes"/>
      <point x="471" y="1579"/>
      <point x="176" y="1414"/>
      <point x="176" y="983" type="curve" smooth="yes"/>
    </contour>
    <contour>
      <point x="41" y="897" type="line"/>
      <point x="178" y="897" type="line"/>
      <point x="229" y="1035" type="line"/>
      <point x="201" y="1152" type="line"/>
      <point x="41" y="1120" type="line"/>
    </contour>
  </outline>
</glyph>
<glyph name="eth" format="1">
  <advance width="1321"/>
  <unicode hex="00F0"/>
  <outline>
    <contour>
      <point x="663" y="-27" type="curve" smooth="yes"/>
      <point x="979" y="-27"/>
      <point x="1254" y="178"/>
      <point x="1254" y="665" type="curve" smooth="yes"/>
      <point x="1254" y="1063"/>
      <point x="1028" y="1456"/>
      <point x="671" y="1645" type="curve" smooth="yes"/>
      <point x="654" y="1655"/>
      <point x="602" y="1680"/>
      <point x="584" y="1690" type="curve" smooth="yes"/>
      <point x="484" y="1747"/>
      <point x="406" y="1772"/>
      <point x="277" y="1809" type="curve"/>
      <point x="217" y="1617" type="line"/>
      <point x="304" y="1591"/>
      <point x="387" y="1545"/>
      <point x="457" y="1498" type="curve" smooth="yes"/>
      <point x="473" y="1487"/>
      <point x="509" y="1459"/>
      <point x="524" y="1449" type="curve" smooth="yes"/>
      <point x="680" y="1346"/>
      <point x="801" y="1201"/>
      <point x="837" y="1021" type="curve"/>
      <point x="923" y="991" type="line"/>
      <point x="893" y="1062"/>
      <point x="796" y="1149"/>
      <point x="617" y="1149" type="curve" smooth="yes"/>
      <point x="276" y="1149"/>
      <point x="84" y="892"/>
      <point x="84" y="550" type="curve" smooth="yes"/>
      <point x="84" y="208"/>
      <point x="309" y="-27"/>
    </contour>
    <contour>
      <point x="667" y="230" type="curve" smooth="yes"/>
      <point x="555" y="230"/>
      <point x="474" y="323"/>
      <point x="474" y="536" type="curve" smooth="yes"/>
      <point x="474" y="784"/>
      <point x="553" y="911"/>
      <point x="678" y="911" type="curve" smooth="yes"/>
      <point x="766" y="911"/>
      <point x="841" y="867"/>
      <point x="871" y="821" type="curve"/>
      <point x="875" y="770"/>
      <point x="875" y="648"/>
      <point x="875" y="592" type="curve" smooth="yes"/>
      <point x="875" y="340"/>
      <point x="777" y="230"/>
    </contour>
    <contour>
      <point x="462" y="1246" type="line"/>
      <point x="641" y="1487" type="line"/>
      <point x="665" y="1523" type="line"/>
      <point x="716" y="1575"/>
      <point x="856" y="1762"/>
      <point x="856" y="1762" type="curve"/>
      <point x="689" y="1877" type="line"/>
      <point x="689" y="1877"/>
      <point x="541" y="1665"/>
      <point x="498" y="1619" type="curve"/>
      <point x="475" y="1587" type="line"/>
      <point x="298" y="1360" type="line"/>
    </contour>
  </outline>
</glyph>
<glyph name="thorn" format="1">
  <advance width="1381"/>
  <unicode hex="00FE"/>
  <outline>
    <contour>
      <point x="159" y="64" type="line"/>
      <point x="159" y="-507" type="line"/>
      <point x="533" y="-507" type="line"/>
      <point x="533" y="-169" type="line"/>
      <point x="528" y="10" type="line"/>
    </contour>
    <component base="b"/>
  </outline>
</glyph>
<glyph name="aogonek" format="1">
  <advance width="1263"/>
  <unicode hex="0105"/>
  <outline>
    <contour>
      <point x="582" y="-308" type="curve" smooth="yes"/>
      <point x="586" y="-439"/>
      <point x="717" y="-516"/>
      <point x="863" y="-516" type="curve" smooth="yes"/>
      <point x="976" y="-516"/>
      <point x="1054" y="-492"/>
      <point x="1121" y="-449" type="curve"/>
      <point x="1121" y="-279" type="line"/>
      <point x="1084" y="-291"/>
      <point x="1047" y="-299"/>
      <point x="1012" y="-299" type="curve" smooth="yes"/>
      <point x="941" y="-299"/>
      <point x="891" y="-276"/>
      <point x="887" y="-211" type="curve" smooth="yes"/>
      <point x="881" y="-117"/>
      <point x="971" y="-52"/>
      <point x="1074" y="1" type="curve"/>
      <point x="980" y="54" type="line"/>
      <point x="820" y="1" type="line"/>
      <point x="702" y="-57"/>
      <point x="577" y="-161"/>
    </contour>
    <component base="a"/>
  </outline>
</glyph>
<glyph name="Eogonek" format="1">
  <advance width="1257"/>
  <unicode hex="0118"/>
  <outline>
    <contour>
      <point x="659" y="-308" type="curve"/>
      <point x="663" y="-439"/>
      <point x="794" y="-516"/>
      <point x="940" y="-516" type="curve" smooth="yes"/>
      <point x="1053" y="-516"/>
      <point x="1131" y="-492"/>
      <point x="1198" y="-449" type="curve"/>
      <point x="1198" y="-279" type="line"/>
      <point x="1161" y="-291"/>
      <point x="1123" y="-299"/>
      <point x="1089" y="-299" type="curve" smooth="yes"/>
      <point x="1018" y="-299"/>
      <point x="968" y="-276"/>
      <point x="964" y="-211" type="curve"/>
      <point x="958" y="-117"/>
      <point x="1048" y="-46"/>
      <point x="1151" y="8" type="curve"/>
      <point x="1057" y="60" type="line"/>
      <point x="897" y="1" type="line"/>
      <point x="779" y="-57"/>
      <point x="654" y="-161"/>
    </contour>
    <component base="E"/>
  </outline>
</glyph>
<glyph name="eogonek" format="1">
  <advance width="1221"/>
  <unicode hex="0119"/>
  <outline>
    <contour>
      <point x="550" y="-304" type="curve"/>
      <point x="553" y="-435"/>
      <point x="685" y="-516"/>
      <point x="831" y="-516" type="curve" smooth="yes"/>
      <point x="935" y="-516"/>
      <point x="1021" y="-492"/>
      <point x="1089" y="-449" type="curve"/>
      <point x="1089" y="-279" type="line"/>
      <point x="1051" y="-291"/>
      <point x="1014" y="-299"/>
      <point x="980" y="-299" type="curve" smooth="yes"/>
      <point x="908" y="-299"/>
      <point x="850" y="-272"/>
      <point x="847" y="-207" type="curve"/>
      <point x="845" y="-90"/>
      <point x="942" y="-1"/>
      <point x="1056" y="93" type="curve"/>
      <point x="924" y="95" type="line"/>
      <point x="776" y="15" type="line"/>
      <point x="658" y="-43"/>
      <point x="544" y="-157"/>
    </contour>
    <component base="e"/>
  </outline>
</glyph>
<glyph name="gcommaaccent" format="1">
  <advance width="1361"/>
  <unicode hex="0123"/>
  <outline>
    <contour>
      <point x="630" y="1870" type="line"/>
      <point x="555" y="1846"/>
      <point x="442" y="1723"/>
      <point x="442" y="1551" type="curve" smooth="yes"/>
      <point x="442" y="1375"/>
      <point x="561" y="1278"/>
      <point x="667" y="1270" type="curve"/>
      <point x="824" y="1403" type="line"/>
      <point x="824" y="1480" type="line"/>
      <point x="770" y="1490"/>
      <point x="735" y="1573"/>
      <point x="735" y="1644" type="curve" smooth="yes"/>
      <point x="735" y="1733"/>
      <point x="752" y="1764"/>
      <point x="774" y="1798" type="curve"/>
      <point x="774" y="1819" type="line"/>
    </contour>
    <component base="g"/>
  </outline>
</glyph>
<glyph name="hbar" format="1">
  <advance width="1380"/>
  <unicode hex="0127"/>
  <outline>
    <contour>
      <point x="30" y="1297" type="line"/>
      <point x="743" y="1297" type="line"/>
      <point x="743" y="1499" type="line"/>
      <point x="30" y="1499" type="line"/>
    </contour>
    <component base="h"/>
  </outline>
</glyph>
<glyph name="Iogonek" format="1">
  <advance width="759"/>
  <unicode hex="012E"/>
  <outline>
    <contour>
      <point x="34" y="-308" type="curve"/>
      <point x="38" y="-439"/>
      <point x="173" y="-516"/>
      <point x="319" y="-516" type="curve" smooth="yes"/>
      <point x="432" y="-516"/>
      <point x="510" y="-492"/>
      <point x="577" y="-449" type="curve"/>
      <point x="577" y="-279" type="line"/>
      <point x="540" y="-291"/>
      <point x="502" y="-299"/>
      <point x="468" y="-299" type="curve" smooth="yes"/>
      <point x="397" y="-299"/>
      <point x="343" y="-272"/>
      <point x="339" y="-207" type="curve"/>
      <point x="333" y="-113"/>
      <point x="415" y="-46"/>
      <point x="518" y="8" type="curve"/>
      <point x="424" y="60" type="line"/>
      <point x="264" y="1" type="line"/>
      <point x="158" y="-57"/>
      <point x="29" y="-161"/>
    </contour>
    <component base="I"/>
  </outline>
</glyph>
<glyph name="lacute" format="1">
  <advance width="697"/>
  <unicode hex="013A"/>
  <outline>
    <contour>
      <point x="163" y="0" type="line"/>
      <point x="534" y="0" type="line"/>
      <point x="534" y="1525" type="line"/>
      <point x="163" y="1525" type="line"/>
    </contour>
    <component base="acute.cap" xOffset="77"/>
  </outline>
</glyph>
<glyph name="eng" format="1">
  <advance width="1382"/>
  <unicode hex="014B"/>
  <outline>
    <contour>
      <point x="163" y="0" type="line"/>
      <point x="538" y="0" type="line"/>
      <point x="538" y="786" type="line"/>
      <point x="593" y="841"/>
      <point x="680" y="864"/>
      <point x="726" y="865" type="curve" smooth="yes"/>
      <point x="827" y="867"/>
      <point x="857" y="816"/>
      <point x="857" y="650" type="curve" smooth="yes"/>
      <point x="857" y="-27" type="line" smooth="yes"/>
      <point x="857" y="-236"/>
      <point x="822" y="-272"/>
      <point x="733" y="-272" type="curve" smooth="yes"/>
      <point x="699" y="-272"/>
      <point x="643" y="-264"/>
      <point x="622" y="-256" type="curve"/>
      <point x="622" y="-487" type="line"/>
      <point x="671" y="-499"/>
      <point x="745" y="-507"/>
      <point x="850" y="-507" type="curve" smooth="yes"/>
      <point x="1084" y="-507"/>
      <point x="1232" y="-348"/>
      <point x="1232" y="-18" type="curve" smooth="yes"/>
      <point x="1232" y="718" type="line" smooth="yes"/>
      <point x="1231" y="1052"/>
      <point x="1111" y="1163"/>
      <point x="873" y="1158" type="curve"/>
      <point x="732" y="1155"/>
      <point x="587" y="1077"/>
      <point x="515" y="1018" type="curve"/>
      <point x="506" y="1139" type="line"/>
      <point x="163" y="1139" type="line"/>
    </contour>
  </outline>
</glyph>
<glyph name="oe" format="1">
  <advance width="1993"/>
  <unicode hex="0153"/>
  <outline>
    <contour>
      <point x="1430" y="-16" type="curve" smooth="yes"/>
      <point x="1632" y="-16"/>
      <point x="1801" y="46"/>
      <point x="1876" y="107" type="curve"/>
      <point x="1820" y="308" type="line"/>
      <point x="1765" y="278"/>
      <point x="1625" y="250"/>
      <point x="1517" y="250" type="curve" smooth="yes"/>
      <point x="1338" y="250"/>
      <point x="1235" y="324"/>
      <point x="1231" y="523" type="curve"/>
      <point x="1228" y="828"/>
      <point x="1299" y="917"/>
      <point x="1426" y="917" type="curve" smooth="yes"/>
      <point x="1538" y="917"/>
      <point x="1578" y="834"/>
      <point x="1569" y="668" type="curve"/>
      <point x="1076" y="668" type="line"/>
      <point x="1056" y="487" type="line"/>
      <point x="1898" y="487" type="line"/>
      <point x="1904" y="536"/>
      <point x="1909" y="610"/>
      <point x="1909" y="693" type="curve" smooth="yes"/>
      <point x="1909" y="1059"/>
      <point x="1676" y="1156"/>
      <point x="1434" y="1156" type="curve" smooth="yes"/>
      <point x="1074" y="1156"/>
      <point x="872" y="907"/>
      <point x="872" y="575" type="curve" smooth="yes"/>
      <point x="872" y="205"/>
      <point x="1065" y="-16"/>
    </contour>
    <contour>
      <point x="662" y="239" type="curve" smooth="yes"/>
      <point x="518" y="239"/>
      <point x="474" y="394"/>
      <point x="474" y="582" type="curve" smooth="yes"/>
      <point x="474" y="789"/>
      <point x="519" y="899"/>
      <point x="667" y="899" type="curve"/>
      <point x="812" y="899"/>
      <point x="855" y="748"/>
      <point x="855" y="564" type="curve" smooth="yes"/>
      <point x="855" y="346"/>
      <point x="808" y="239"/>
    </contour>
    <contour>
      <point x="654" y="-16" type="curve" smooth="yes"/>
      <point x="996" y="-16"/>
      <point x="1226" y="181"/>
      <point x="1231" y="547" type="curve" smooth="yes"/>
      <point x="1236" y="874"/>
      <point x="1096" y="1156"/>
      <point x="675" y="1156" type="curve" smooth="yes"/>
      <point x="332" y="1156"/>
      <point x="91" y="959"/>
      <point x="86" y="593" type="curve" smooth="yes"/>
      <point x="81" y="266"/>
      <point x="232" y="-16"/>
    </contour>
    <contour>
      <point x="1068" y="-170" type="move" name="btm"/>
    </contour>
    <contour>
      <point x="1068" y="1700" type="move" name="top"/>
    </contour>
  </outline>
</glyph>
<glyph name="Tbar" format="1">
  <advance width="1253"/>
  <unicode hex="0166"/>
  <outline>
    <contour>
      <point x="177" y="558" type="line"/>
      <point x="1104" y="558" type="line"/>
      <point x="1104" y="796" type="line"/>
      <point x="177" y="796" type="line"/>
    </contour>
    <component base="T"/>
  </outline>
</glyph>
<glyph name="circumflex" format="1">
  <advance width="894"/>
  <unicode hex="02C6"/>
  <outline>
    <contour>
      <point x="207" y="1249" type="line"/>
      <point x="447" y="1476" type="line"/>
      <point x="686" y="1249" type="line"/>
      <point x="863" y="1363" type="line"/>
      <point x="559" y="1733" type="line"/>
      <point x="336" y="1733" type="line"/>
      <point x="31" y="1363" type="line"/>
    </contour>
    <contour>
      <point x="446" y="1701" type="move" name="_top"/>
    </contour>
  </outline>
</glyph>
<glyph name="firsttonechinese" format="1">
  <advance width="701"/>
  <unicode hex="02C9"/>
  <outline>
    <contour>
      <point x="41" y="1721" type="line"/>
      <point x="660" y="1721" type="line"/>
      <point x="660" y="1967" type="line"/>
      <point x="41" y="1967" type="line"/>
    </contour>
    <contour>
      <point x="334" y="1701" type="move" name="_top"/>
    </contour>
  </outline>
</glyph>
<glyph name="breve" format="1">
  <advance width="825"/>
  <unicode hex="02D8"/>
  <outline>
    <contour>
      <point x="414" y="1286" type="curve" smooth="yes"/>
      <point x="655" y="1286"/>
      <point x="800" y="1456"/>
      <point x="798" y="1688" type="curve"/>
      <point x="574" y="1688" type="line"/>
      <point x="566" y="1640"/>
      <point x="552" y="1529"/>
      <point x="414" y="1529" type="curve" smooth="yes"/>
      <point x="271" y="1529"/>
      <point x="260" y="1640"/>
      <point x="255" y="1688" type="curve"/>
      <point x="28" y="1688" type="line"/>
      <point x="25" y="1456"/>
      <point x="160" y="1286"/>
    </contour>
    <contour>
      <point x="413" y="1701" type="move" name="_top"/>
    </contour>
  </outline>
</glyph>
<glyph name="dotaccent" format="1">
  <advance width="533"/>
  <unicode hex="02D9"/>
  <outline>
    <contour>
      <point x="259" y="1279" type="curve" smooth="yes"/>
      <point x="380" y="1279"/>
      <point x="480" y="1374"/>
      <point x="480" y="1486" type="curve" smooth="yes"/>
      <point x="480" y="1599"/>
      <point x="397" y="1677"/>
      <point x="276" y="1677" type="curve" smooth="yes"/>
      <point x="156" y="1677"/>
      <point x="53" y="1583"/>
      <point x="53" y="1471" type="curve" smooth="yes"/>
      <point x="53" y="1359"/>
      <point x="140" y="1279"/>
    </contour>
    <contour>
      <point x="274" y="1701" type="move" name="_top"/>
    </contour>
  </outline>
</glyph>
<glyph name="ring" format="1">
  <advance width="779"/>
  <unicode hex="02DA"/>
  <outline>
    <contour>
      <point x="386" y="1296" type="curve" smooth="yes"/>
      <point x="574" y="1296"/>
      <point x="751" y="1387"/>
      <point x="753" y="1604" type="curve" smooth="yes"/>
      <point x="754" y="1800"/>
      <point x="617" y="1906"/>
      <point x="395" y="1906" type="curve" smooth="yes"/>
      <point x="218" y="1906"/>
      <point x="31" y="1827"/>
      <point x="26" y="1610" type="curve" smooth="yes"/>
      <point x="23" y="1418"/>
      <point x="157" y="1296"/>
    </contour>
    <contour>
      <point x="389" y="1465" type="curve" smooth="yes"/>
      <point x="297" y="1465"/>
      <point x="231" y="1523"/>
      <point x="231" y="1607" type="curve" smooth="yes"/>
      <point x="231" y="1711"/>
      <point x="306" y="1744"/>
      <point x="389" y="1743" type="curve" smooth="yes"/>
      <point x="481" y="1742"/>
      <point x="549" y="1690"/>
      <point x="549" y="1600" type="curve" smooth="yes"/>
      <point x="549" y="1495"/>
      <point x="485" y="1464"/>
    </contour>
    <contour>
      <point x="390" y="1701" type="move" name="_top"/>
    </contour>
  </outline>
</glyph>
<glyph name="ogonek" format="1">
  <advance width="650"/>
  <unicode hex="02DB"/>
  <outline>
    <contour>
      <point x="328" y="-518" type="curve" smooth="yes"/>
      <point x="421" y="-518"/>
      <point x="509" y="-494"/>
      <point x="566" y="-451" type="curve"/>
      <point x="563" y="-304" type="line"/>
      <point x="524" y="-312"/>
      <point x="479" y="-317"/>
      <point x="440" y="-317" type="curve" smooth="yes"/>
      <point x="373" y="-317"/>
      <point x="328" y="-298"/>
      <point x="324" y="-248" type="curve" smooth="yes"/>
      <point x="313" y="-132"/>
      <point x="434" y="-45"/>
      <point x="550" y="29" type="curve"/>
      <point x="418" y="9" type="line"/>
      <point x="286" y="-11" type="line"/>
      <point x="188" y="-68"/>
      <point x="50" y="-174"/>
      <point x="64" y="-345" type="curve" smooth="yes"/>
      <point x="72" y="-465"/>
      <point x="199" y="-519"/>
    </contour>
  </outline>
</glyph>
<glyph name="hungarumlaut" format="1">
  <advance width="1041"/>
  <unicode hex="02DD"/>
  <outline>
    <contour>
      <point x="171" y="1280" type="line"/>
      <point x="268" y="1335"/>
      <point x="475" y="1559"/>
      <point x="542" y="1690" type="curve"/>
      <point x="327" y="1837" type="line"/>
      <point x="309" y="1811"/>
      <point x="103" y="1486"/>
      <point x="27" y="1384" type="curve"/>
    </contour>
    <contour>
      <point x="688" y="1280" type="line"/>
      <point x="787" y="1329"/>
      <point x="1001" y="1556"/>
      <point x="1068" y="1684" type="curve"/>
      <point x="852" y="1831" type="line"/>
      <point x="832" y="1802"/>
      <point x="607" y="1462"/>
      <point x="548" y="1384" type="curve"/>
    </contour>
    <contour>
      <point x="418" y="1693" type="move" name="_top"/>
    </contour>
  </outline>
</glyph>
<glyph name="quoteright" format="1">
  <advance width="624"/>
  <unicode hex="2019"/>
  <outline>
    <contour>
      <point x="296" y="916" type="line"/>
      <point x="355" y="960"/>
      <point x="502" y="1107"/>
      <point x="502" y="1387" type="curve" smooth="yes"/>
      <point x="502" y="1590"/>
      <point x="401" y="1724"/>
      <point x="315" y="1756" type="curve"/>
      <point x="113" y="1604" type="line"/>
      <point x="113" y="1525" type="line"/>
      <point x="150" y="1504"/>
      <point x="202" y="1417"/>
      <point x="202" y="1291" type="curve" smooth="yes"/>
      <point x="202" y="1182"/>
      <point x="177" y="1082"/>
      <point x="146" y="1041" type="curve"/>
      <point x="146" y="1012" type="line"/>
    </contour>
  </outline>
</glyph>
<glyph name="quotereversed" format="1">
  <advance width="624"/>
  <unicode hex="201B"/>
  <outline>
    <contour>
      <point x="303" y="1756" type="line"/>
      <point x="216" y="1724"/>
      <point x="110" y="1586"/>
      <point x="110" y="1383" type="curve" smooth="yes"/>
      <point x="110" y="1102"/>
      <point x="254" y="960"/>
      <point x="313" y="916" type="curve"/>
      <point x="467" y="1012" type="line"/>
      <point x="467" y="1041" type="line"/>
      <point x="435" y="1082"/>
      <point x="410" y="1182"/>
      <point x="410" y="1291" type="curve" smooth="yes"/>
      <point x="410" y="1417"/>
      <point x="462" y="1504"/>
      <point x="500" y="1525" type="curve"/>
      <point x="500" y="1604" type="line"/>
    </contour>
  </outline>
</glyph>
<glyph name="dagger" format="1">
  <advance width="1034"/>
  <unicode hex="2020"/>
  <outline>
    <contour>
      <point x="387" y="200" type="line"/>
      <point x="649" y="200" type="line"/>
      <point x="663" y="1041" type="line"/>
      <point x="942" y="1041" type="line"/>
      <point x="942" y="1288" type="line"/>
      <point x="663" y="1287" type="line"/>
      <point x="663" y="1658" type="line"/>
      <point x="371" y="1658" type="line"/>
      <point x="370" y="1287" type="line"/>
      <point x="93" y="1288" type="line"/>
      <point x="92" y="1041" type="line"/>
      <point x="370" y="1041" type="line"/>
    </contour>
  </outline>
</glyph>
<glyph name="daggerdbl" format="1">
  <advance width="1039"/>
  <unicode hex="2021"/>
  <outline>
    <contour>
      <point x="388" y="-356" type="line"/>
      <point x="641" y="-356" type="line"/>
      <point x="662" y="392" type="line"/>
      <point x="946" y="392" type="line"/>
      <point x="946" y="639" type="line"/>
      <point x="662" y="640" type="line"/>
      <point x="662" y="1041" type="line"/>
      <point x="947" y="1041" type="line"/>
      <point x="947" y="1288" type="line"/>
      <point x="662" y="1288" type="line"/>
      <point x="664" y="1658" type="line"/>
      <point x="371" y="1658" type="line"/>
      <point x="370" y="1288" type="line"/>
      <point x="93" y="1288" type="line"/>
      <point x="92" y="1041" type="line"/>
      <point x="370" y="1041" type="line"/>
      <point x="370" y="640" type="line"/>
      <point x="92" y="639" type="line"/>
      <point x="92" y="392" type="line"/>
      <point x="370" y="392" type="line"/>
    </contour>
  </outline>
</glyph>
<glyph name="ellipsis" format="1">
  <advance width="1994"/>
  <unicode hex="2026"/>
  <outline>
    <contour>
      <point x="327" y="-22" type="curve" smooth="yes"/>
      <point x="453" y="-22"/>
      <point x="549" y="85"/>
      <point x="548" y="206" type="curve" smooth="yes"/>
      <point x="548" y="326"/>
      <point x="470" y="416"/>
      <point x="344" y="416" type="curve" smooth="yes"/>
      <point x="218" y="416"/>
      <point x="120" y="309"/>
      <point x="120" y="189" type="curve" smooth="yes"/>
      <point x="121" y="69"/>
      <point x="204" y="-22"/>
    </contour>
    <contour>
      <point x="990" y="-22" type="curve" smooth="yes"/>
      <point x="1116" y="-22"/>
      <point x="1211" y="85"/>
      <point x="1210" y="206" type="curve" smooth="yes"/>
      <point x="1210" y="326"/>
      <point x="1132" y="416"/>
      <point x="1007" y="416" type="curve" smooth="yes"/>
      <point x="881" y="416"/>
      <point x="783" y="309"/>
      <point x="783" y="189" type="curve" smooth="yes"/>
      <point x="784" y="69"/>
      <point x="867" y="-22"/>
    </contour>
    <contour>
      <point x="1652" y="-22" type="curve" smooth="yes"/>
      <point x="1778" y="-22"/>
      <point x="1874" y="85"/>
      <point x="1873" y="206" type="curve" smooth="yes"/>
      <point x="1873" y="326"/>
      <point x="1795" y="416"/>
      <point x="1670" y="416" type="curve" smooth="yes"/>
      <point x="1543" y="416"/>
      <point x="1445" y="309"/>
      <point x="1446" y="189" type="curve" smooth="yes"/>
      <point x="1446" y="69"/>
      <point x="1530" y="-22"/>
    </contour>
  </outline>
</glyph>
<glyph name="lira" format="1">
  <advance width="1637"/>
  <unicode hex="20A4"/>
  <outline>
    <contour>
      <point x="231" y="842" type="line"/>
      <point x="231" y="996" type="line"/>
      <point x="397" y="996" type="line"/>
      <point x="397" y="1033" type="line" smooth="yes"/>
      <point x="397" y="1330"/>
      <point x="625" y="1538"/>
      <point x="1006" y="1538" type="curve" smooth="yes"/>
      <point x="1230" y="1538"/>
      <point x="1343" y="1471"/>
      <point x="1405" y="1430" type="curve"/>
      <point x="1245" y="1133" type="line"/>
      <point x="1210" y="1168"/>
      <point x="1116" y="1216"/>
      <point x="1012" y="1216" type="curve" smooth="yes"/>
      <point x="869" y="1216"/>
      <point x="804" y="1172"/>
      <point x="801" y="996" type="curve"/>
      <point x="1088" y="996" type="line"/>
      <point x="1088" y="842" type="line"/>
      <point x="801" y="842" type="line"/>
      <point x="801" y="728" type="line"/>
      <point x="1066" y="728" type="line"/>
      <point x="1066" y="574" type="line"/>
      <point x="800" y="574" type="line"/>
      <point x="797" y="460"/>
      <point x="779" y="347"/>
      <point x="720" y="295" type="curve"/>
      <point x="805" y="271"/>
      <point x="890" y="239"/>
      <point x="988" y="239" type="curve" smooth="yes"/>
      <point x="1127" y="239"/>
      <point x="1198" y="297"/>
      <point x="1198" y="381" type="curve" smooth="yes"/>
      <point x="1198" y="443"/>
      <point x="1150" y="499"/>
      <point x="1125" y="513" type="curve"/>
      <point x="1423" y="643" type="line"/>
      <point x="1461" y="618"/>
      <point x="1583" y="520"/>
      <point x="1583" y="352" type="curve" smooth="yes"/>
      <point x="1583" y="144"/>
      <point x="1442" y="-15"/>
      <point x="1095" y="-15" type="curve" smooth="yes"/>
      <point x="792" y="-15"/>
      <point x="600" y="79"/>
      <point x="488" y="84" type="curve"/>
      <point x="448" y="49"/>
      <point x="349" y="-7"/>
      <point x="270" y="-7" type="curve" smooth="yes"/>
      <point x="194" y="-7"/>
      <point x="100" y="22"/>
      <point x="100" y="124" type="curve" smooth="yes"/>
      <point x="100" y="246"/>
      <point x="252" y="309"/>
      <point x="364" y="317" type="curve"/>
      <point x="393" y="336"/>
      <point x="397" y="453"/>
      <point x="397" y="550" type="curve" smooth="yes"/>
      <point x="397" y="574" type="line"/>
      <point x="209" y="574" type="line"/>
      <point x="209" y="728" type="line"/>
      <point x="397" y="728" type="line"/>
      <point x="397" y="842" type="line"/>
    </contour>
  </outline>
</glyph>
<glyph name="peseta" format="1">
  <advance width="1582"/>
  <unicode hex="20A7"/>
  <outline>
    <contour>
      <point x="42" y="918" type="line"/>
      <point x="42" y="1065" type="line"/>
      <point x="199" y="1065" type="line"/>
      <point x="199" y="1522" type="line"/>
      <point x="398" y="1522" type="line" smooth="yes"/>
      <point x="510" y="1522"/>
      <point x="654" y="1538"/>
      <point x="826" y="1538" type="curve" smooth="yes"/>
      <point x="1185" y="1538"/>
      <point x="1412" y="1420"/>
      <point x="1436" y="1065" type="curve"/>
      <point x="1571" y="1065" type="line"/>
      <point x="1571" y="918" type="line"/>
      <point x="1435" y="918" type="line"/>
      <point x="1406" y="597"/>
      <point x="1190" y="432"/>
      <point x="801" y="432" type="curve" smooth="yes"/>
      <point x="703" y="432"/>
      <point x="661" y="435"/>
      <point x="621" y="435" type="curve"/>
      <point x="621" y="0" type="line"/>
      <point x="199" y="0" type="line"/>
      <point x="199" y="918" type="line"/>
    </contour>
    <contour>
      <point x="621" y="1244" type="curve"/>
      <point x="621" y="1065" type="line"/>
      <point x="1027" y="1065" type="line"/>
      <point x="1008" y="1179"/>
      <point x="939" y="1255"/>
      <point x="796" y="1255" type="curve"/>
      <point x="740" y="1254"/>
      <point x="673" y="1251"/>
    </contour>
    <contour>
      <point x="621" y="727" type="line"/>
      <point x="669" y="724"/>
      <point x="712" y="719"/>
      <point x="808" y="719" type="curve" smooth="yes"/>
      <point x="929" y="719"/>
      <point x="1006" y="782"/>
      <point x="1027" y="918" type="curve"/>
      <point x="621" y="918" type="line"/>
    </contour>
  </outline>
</glyph>
<glyph name="won" format="1">
  <advance width="2227"/>
  <unicode hex="20A9"/>
  <outline>
    <contour>
      <point x="2164" y="405" type="line"/>
      <point x="1817" y="405" type="line"/>
      <point x="1718" y="-7" type="line"/>
      <point x="1351" y="-7" type="line"/>
      <point x="1257" y="405" type="line"/>
      <point x="964" y="405" type="line"/>
      <point x="874" y="-7" type="line"/>
      <point x="510" y="-7" type="line"/>
      <point x="410" y="405" type="line"/>
      <point x="63" y="405" type="line"/>
      <point x="63" y="599" type="line"/>
      <point x="363" y="599" type="line"/>
      <point x="321" y="769" type="line"/>
      <point x="63" y="769" type="line"/>
      <point x="63" y="963" type="line"/>
      <point x="274" y="963" type="line"/>
      <point x="139" y="1522" type="line"/>
      <point x="466" y="1522" type="line"/>
      <point x="570" y="963" type="line"/>
      <point x="838" y="963" type="line"/>
      <point x="972" y="1522" type="line"/>
      <point x="1269" y="1522" type="line"/>
      <point x="1402" y="963" type="line"/>
      <point x="1676" y="963" type="line"/>
      <point x="1782" y="1522" type="line"/>
      <point x="2088" y="1522" type="line"/>
      <point x="1952" y="963" type="line"/>
      <point x="2164" y="963" type="line"/>
      <point x="2164" y="769" type="line"/>
      <point x="1905" y="769" type="line"/>
      <point x="1864" y="599" type="line"/>
      <point x="2164" y="599" type="line"/>
    </contour>
    <contour>
      <point x="1108" y="1154" type="line"/>
      <point x="1081" y="963" type="line"/>
      <point x="1137" y="963" type="line"/>
    </contour>
    <contour>
      <point x="1448" y="769" type="line"/>
      <point x="1489" y="599" type="line"/>
      <point x="1606" y="599" type="line"/>
      <point x="1639" y="769" type="line"/>
    </contour>
    <contour>
      <point x="1044" y="769" type="line"/>
      <point x="1007" y="599" type="line"/>
      <point x="1213" y="599" type="line"/>
      <point x="1175" y="769" type="line"/>
    </contour>
    <contour>
      <point x="606" y="769" type="line"/>
      <point x="637" y="599" type="line"/>
      <point x="751" y="599" type="line"/>
      <point x="791" y="769" type="line"/>
    </contour>
    <contour>
      <point x="1526" y="405" type="line"/>
      <point x="1556" y="240" type="line"/>
      <point x="1578" y="405" type="line"/>
    </contour>
    <contour>
      <point x="666" y="405" type="line"/>
      <point x="691" y="227" type="line"/>
      <point x="717" y="405" type="line"/>
    </contour>
  </outline>
</glyph>
<glyph name="dong" format="1">
  <advance width="1391"/>
  <unicode hex="20AB"/>
  <outline>
    <contour>
      <point x="496" y="1353" type="line"/>
      <point x="496" y="1521" type="line"/>
      <point x="821" y="1521" type="line"/>
      <point x="821" y="1694" type="line"/>
      <point x="1191" y="1694" type="line"/>
      <point x="1191" y="1521" type="line"/>
      <point x="1358" y="1521" type="line"/>
      <point x="1358" y="1353" type="line"/>
      <point x="1191" y="1353" type="line"/>
      <point x="1191" y="291" type="line"/>
      <point x="880" y="291" type="line" smooth="yes"/>
      <point x="857" y="291"/>
      <point x="857" y="323"/>
      <point x="857" y="331" type="curve" smooth="yes"/>
      <point x="857" y="401" type="line"/>
      <point x="813" y="360"/>
      <point x="738" y="291"/>
      <point x="557" y="291" type="curve" smooth="yes"/>
      <point x="336" y="291"/>
      <point x="149" y="433"/>
      <point x="149" y="736" type="curve" smooth="yes"/>
      <point x="149" y="1059"/>
      <point x="353" y="1248"/>
      <point x="672" y="1248" type="curve" smooth="yes"/>
      <point x="744" y="1248"/>
      <point x="792" y="1241"/>
      <point x="824" y="1233" type="curve"/>
      <point x="821" y="1353" type="line"/>
    </contour>
    <contour>
      <point x="659" y="540" type="curve" smooth="yes"/>
      <point x="739" y="540"/>
      <point x="794" y="568"/>
      <point x="821" y="585" type="curve"/>
      <point x="821" y="984" type="line"/>
      <point x="806" y="996"/>
      <point x="769" y="1013"/>
      <point x="688" y="1013" type="curve" smooth="yes"/>
      <point x="565" y="1013"/>
      <point x="515" y="913"/>
      <point x="515" y="742" type="curve" smooth="yes"/>
      <point x="515" y="601"/>
      <point x="576" y="540"/>
    </contour>
    <contour>
      <point x="144" y="0" type="line"/>
      <point x="144" y="197" type="line"/>
      <point x="1249" y="197" type="line"/>
      <point x="1249" y="0" type="line"/>
    </contour>
  </outline>
</glyph>
<glyph name="liraTurkish" format="1">
  <advance width="1505"/>
  <unicode hex="20BA"/>
  <outline>
    <contour>
      <point x="1090" y="719" type="curve"/>
      <point x="1425" y="719" type="line"/>
      <point x="1425" y="664" type="line" smooth="yes"/>
      <point x="1425" y="256"/>
      <point x="1155" y="0"/>
      <point x="707" y="0" type="curve" smooth="yes"/>
      <point x="327" y="0" type="line"/>
      <point x="327" y="528" type="line"/>
      <point x="141" y="451" type="line"/>
      <point x="141" y="618" type="line"/>
      <point x="327" y="695" type="line"/>
      <point x="327" y="889" type="line"/>
      <point x="131" y="807" type="line"/>
      <point x="131" y="984" type="line"/>
      <point x="327" y="1066" type="line"/>
      <point x="327" y="1538" type="line"/>
      <point x="707" y="1538" type="line"/>
      <point x="707" y="1226" type="line"/>
      <point x="1118" y="1399" type="line"/>
      <point x="1118" y="1222" type="line"/>
      <point x="707" y="1049" type="line"/>
      <point x="707" y="853" type="line"/>
      <point x="1096" y="1015" type="line"/>
      <point x="1096" y="848" type="line"/>
      <point x="707" y="686" type="line"/>
      <point x="707" y="287" type="line"/>
      <point x="992" y="287"/>
      <point x="1082" y="442"/>
    </contour>
  </outline>
</glyph>
<glyph name="trademark" format="1">
  <advance width="2226"/>
  <unicode hex="2122"/>
  <outline>
    <contour>
      <point x="373" y="767" type="line"/>
      <point x="615" y="767" type="line"/>
      <point x="615" y="1331" type="line"/>
      <point x="867" y="1330" type="line"/>
      <point x="867" y="1543" type="line"/>
      <point x="128" y="1543" type="line"/>
      <point x="129" y="1330" type="line"/>
      <point x="373" y="1331" type="line"/>
    </contour>
    <contour>
      <point x="1198" y="767" type="line"/>
      <point x="1210" y="1219" type="line"/>
      <point x="1214" y="1381" type="line"/>
      <point x="1200" y="1381" type="line"/>
      <point x="1272" y="1170" type="line"/>
      <point x="1429" y="767" type="line"/>
      <point x="1604" y="767" type="line"/>
      <point x="1746" y="1170" type="line"/>
      <point x="1809" y="1379" type="line"/>
      <point x="1796" y="1379" type="line"/>
      <point x="1804" y="1219" type="line"/>
      <point x="1836" y="767" type="line"/>
      <point x="2077" y="767" type="line"/>
      <point x="2007" y="1543" type="line"/>
      <point x="1630" y="1543" type="line"/>
      <point x="1538" y="1231" type="line"/>
      <point x="1482" y="940" type="line"/>
      <point x="1546" y="940" type="line"/>
      <point x="1477" y="1231" type="line"/>
      <point x="1382" y="1543" type="line"/>
      <point x="996" y="1543" type="line"/>
      <point x="953" y="767" type="line"/>
    </contour>
  </outline>
</glyph>
<glyph name="partialdiff" format="1">
  <advance width="1425"/>
  <unicode hex="2202"/>
  <outline>
    <contour>
      <point x="659" y="-30" type="curve" smooth="yes"/>
      <point x="1109" y="-30"/>
      <point x="1324" y="253"/>
      <point x="1324" y="797" type="curve" smooth="yes"/>
      <point x="1324" y="1272"/>
      <point x="1086" y="1732"/>
      <point x="541" y="1732" type="curve" smooth="yes"/>
      <point x="386" y="1732"/>
      <point x="228" y="1680"/>
      <point x="109" y="1587" type="curve"/>
      <point x="227" y="1387" type="line"/>
      <point x="296" y="1435"/>
      <point x="404" y="1467"/>
      <point x="494" y="1467" type="curve" smooth="yes"/>
      <point x="793" y="1467"/>
      <point x="960" y="1225"/>
      <point x="963" y="878" type="curve" smooth="yes"/>
      <point x="963" y="824"/>
      <point x="960" y="743"/>
      <point x="960" y="655" type="curve" smooth="yes"/>
      <point x="960" y="533"/>
      <point x="935" y="216"/>
      <point x="726" y="216" type="curve" smooth="yes"/>
      <point x="539" y="216"/>
      <point x="483" y="355"/>
      <point x="479" y="534" type="curve" smooth="yes"/>
      <point x="475" y="761"/>
      <point x="555" y="874"/>
      <point x="729" y="874" type="curve" smooth="yes"/>
      <point x="853" y="874"/>
      <point x="933" y="827"/>
      <point x="1023" y="746" type="curve"/>
      <point x="1029" y="998" type="line"/>
      <point x="948" y="1047"/>
      <point x="877" y="1098"/>
      <point x="713" y="1098" type="curve" smooth="yes"/>
      <point x="413" y="1098"/>
      <point x="101" y="954"/>
      <point x="107" y="523" type="curve" smooth="yes"/>
      <point x="111" y="217"/>
      <point x="362" y="-30"/>
    </contour>
  </outline>
</glyph>
<glyph name="summation" format="1">
  <advance width="1503"/>
  <unicode hex="2211"/>
  <outline>
    <contour>
      <point x="173" y="-170" type="line"/>
      <point x="1333" y="-170" type="line"/>
      <point x="1333" y="97" type="line"/>
      <point x="540" y="97" type="line"/>
      <point x="548" y="-93" type="line"/>
      <point x="1062" y="689" type="line"/>
      <point x="525" y="1450" type="line"/>
      <point x="517" y="1243" type="line"/>
      <point x="1275" y="1243" type="line"/>
      <point x="1275" y="1522" type="line"/>
      <point x="177" y="1522" type="line"/>
      <point x="147" y="1442" type="line"/>
      <point x="694" y="683" type="line"/>
      <point x="147" y="-99" type="line"/>
    </contour>
  </outline>
</glyph>
<glyph name="breve.cap" format="1">
  <advance width="825"/>
  <outline>
    <contour>
      <point x="414" y="1595" type="curve" smooth="yes"/>
      <point x="662" y="1595"/>
      <point x="799" y="1742"/>
      <point x="797" y="1964" type="curve"/>
      <point x="577" y="1964" type="line"/>
      <point x="570" y="1917"/>
      <point x="551" y="1825"/>
      <point x="414" y="1825" type="curve" smooth="yes"/>
      <point x="275" y="1825"/>
      <point x="257" y="1917"/>
      <point x="252" y="1964" type="curve"/>
      <point x="28" y="1964" type="line"/>
      <point x="25" y="1742"/>
      <point x="153" y="1595"/>
    </contour>
    <contour>
      <point x="414" y="1701" type="move" name="_top"/>
    </contour>
  </outline>
</glyph>
<glyph name="circumflex.cap" format="1">
  <advance width="891"/>
  <outline>
    <contour>
      <point x="222" y="1542" type="line"/>
      <point x="445" y="1735" type="line"/>
      <point x="669" y="1542" type="line"/>
      <point x="847" y="1658" type="line"/>
      <point x="562" y="1964" type="line"/>
      <point x="328" y="1964" type="line"/>
      <point x="44" y="1656" type="line"/>
    </contour>
    <contour>
      <point x="445" y="1701" type="move" name="_top"/>
    </contour>
  </outline>
</glyph>
<glyph name="dieresis.cap" format="1">
  <advance width="1038"/>
  <outline>
    <contour>
      <point x="244" y="1582" type="curve" smooth="yes"/>
      <point x="360" y="1582"/>
      <point x="449" y="1671"/>
      <point x="449" y="1781" type="curve" smooth="yes"/>
      <point x="449" y="1891"/>
      <point x="377" y="1964"/>
      <point x="260" y="1964" type="curve" smooth="yes"/>
      <point x="146" y="1964"/>
      <point x="53" y="1876"/>
      <point x="53" y="1766" type="curve" smooth="yes"/>
      <point x="53" y="1657"/>
      <point x="130" y="1582"/>
    </contour>
    <contour>
      <point x="785" y="1582" type="curve" smooth="yes"/>
      <point x="901" y="1582"/>
      <point x="990" y="1671"/>
      <point x="990" y="1781" type="curve" smooth="yes"/>
      <point x="990" y="1891"/>
      <point x="919" y="1964"/>
      <point x="802" y="1964" type="curve" smooth="yes"/>
      <point x="687" y="1964"/>
      <point x="594" y="1876"/>
      <point x="594" y="1766" type="curve" smooth="yes"/>
      <point x="594" y="1657"/>
      <point x="671" y="1582"/>
    </contour>
    <contour>
      <point x="519" y="1700" type="move" name="_top"/>
    </contour>
  </outline>
</glyph>
<glyph name="ij_acutecomb" format="1">
  <advance width="1367"/>
  <outline>
    <contour>
      <point x="159" y="0" type="line"/>
      <point x="531" y="0" type="line"/>
      <point x="531" y="1140" type="line"/>
      <point x="159" y="1140" type="line"/>
    </contour>
    <contour>
      <point x="366" y="1237" type="line"/>
      <point x="456" y="1280"/>
      <point x="711" y="1484"/>
      <point x="775" y="1635" type="curve"/>
      <point x="532" y="1824" type="line"/>
      <point x="437" y="1671"/>
      <point x="286" y="1488"/>
      <point x="193" y="1395" type="curve"/>
    </contour>
    <contour>
      <point x="586" y="-481" type="line"/>
      <point x="617" y="-492"/>
      <point x="714" y="-507"/>
      <point x="783" y="-507" type="curve" smooth="yes"/>
      <point x="1053" y="-507"/>
      <point x="1221" y="-364"/>
      <point x="1221" y="82" type="curve" smooth="yes"/>
      <point x="1221" y="1140" type="line"/>
      <point x="849" y="1140" type="line"/>
      <point x="849" y="2" type="line" smooth="yes"/>
      <point x="849" y="-206"/>
      <point x="810" y="-269"/>
      <point x="703" y="-269" type="curve" smooth="yes"/>
      <point x="669" y="-269"/>
      <point x="602" y="-257"/>
      <point x="586" y="-247" type="curve"/>
    </contour>
    <component base="acute" xOffset="837"/>
  </outline>
</glyph>
<glyph name="macron.cap" format="1">
  <advance width="725"/>
  <outline>
    <contour>
      <point x="53" y="1675" type="line"/>
      <point x="672" y="1675" type="line"/>
      <point x="672" y="1909" type="line"/>
      <point x="53" y="1909" type="line"/>
    </contour>
    <contour>
      <point x="361" y="1701" type="move" name="_top"/>
    </contour>
  </outline>
</glyph>
<glyph name="one.numr" format="1">
  <advance width="1081"/>
  <outline>
    <contour>
      <point x="393" y="680" type="line"/>
      <point x="726" y="680" type="line"/>
      <point x="726" y="1689" type="line"/>
      <point x="552" y="1714" type="line"/>
      <point x="504" y="1675"/>
      <point x="287" y="1565"/>
      <point x="165" y="1530" type="curve"/>
      <point x="205" y="1333" type="line"/>
      <point x="271" y="1344"/>
      <point x="336" y="1358"/>
      <point x="393" y="1376" type="curve"/>
    </contour>
  </outline>
</glyph>
<glyph name="ring.cap" format="1">
  <advance width="779"/>
  <outline>
    <contour>
      <point x="386" y="1394" type="curve" smooth="yes"/>
      <point x="574" y="1394"/>
      <point x="751" y="1472"/>
      <point x="753" y="1689" type="curve" smooth="yes"/>
      <point x="754" y="1885"/>
      <point x="617" y="1978"/>
      <point x="395" y="1978" type="curve" smooth="yes"/>
      <point x="218" y="1978"/>
      <point x="30" y="1912"/>
      <point x="26" y="1696" type="curve" smooth="yes"/>
      <point x="23" y="1503"/>
      <point x="157" y="1394"/>
    </contour>
    <contour>
      <point x="389" y="1564" type="curve" smooth="yes"/>
      <point x="297" y="1564"/>
      <point x="231" y="1608"/>
      <point x="231" y="1692" type="curve" smooth="yes"/>
      <point x="231" y="1796"/>
      <point x="306" y="1816"/>
      <point x="389" y="1815" type="curve" smooth="yes"/>
      <point x="481" y="1814"/>
      <point x="549" y="1775"/>
      <point x="549" y="1686" type="curve" smooth="yes"/>
      <point x="549" y="1580"/>
      <point x="485" y="1563"/>
    </contour>
    <contour>
      <point x="391" y="1701" type="move" name="_top"/>
    </contour>
  </outline>
</glyph>
<glyph name="tilde.cap" format="1">
  <advance width="933"/>
  <outline>
    <contour>
      <point x="149" y="1599" type="line"/>
      <point x="182" y="1643"/>
      <point x="243" y="1699"/>
      <point x="307" y="1699" type="curve" smooth="yes"/>
      <point x="423" y="1699"/>
      <point x="441" y="1565"/>
      <point x="620" y="1565" type="curve" smooth="yes"/>
      <point x="780" y="1565"/>
      <point x="889" y="1685"/>
      <point x="920" y="1801" type="curve"/>
      <point x="793" y="1937" type="line"/>
      <point x="760" y="1891"/>
      <point x="700" y="1832"/>
      <point x="630" y="1832" type="curve" smooth="yes"/>
      <point x="523" y="1832"/>
      <point x="510" y="1963"/>
      <point x="324" y="1963" type="curve" smooth="yes"/>
      <point x="160" y="1963"/>
      <point x="47" y="1847"/>
      <point x="16" y="1731" type="curve"/>
    </contour>
    <contour>
      <point x="464" y="1701" type="move" name="_top"/>
    </contour>
  </outline>
</glyph>
<glyph name="two.numr" format="1">
  <advance width="1252"/>
  <outline>
    <contour>
      <point x="206" y="680" type="line"/>
      <point x="1081" y="680" type="line"/>
      <point x="1081" y="942" type="line"/>
      <point x="482" y="910" type="line"/>
      <point x="461" y="832" type="line"/>
      <point x="791" y="988"/>
      <point x="1029" y="1171"/>
      <point x="1029" y="1417" type="curve" smooth="yes"/>
      <point x="1029" y="1563"/>
      <point x="917" y="1735"/>
      <point x="610" y="1735" type="curve" smooth="yes"/>
      <point x="367" y="1735"/>
      <point x="196" y="1615"/>
      <point x="133" y="1523" type="curve"/>
      <point x="264" y="1351" type="line"/>
      <point x="335" y="1444"/>
      <point x="422" y="1497"/>
      <point x="525" y="1497" type="curve" smooth="yes"/>
      <point x="623" y="1497"/>
      <point x="677" y="1450"/>
      <point x="677" y="1356" type="curve" smooth="yes"/>
      <point x="677" y="1161"/>
      <point x="320" y="928"/>
      <point x="166" y="850" type="curve"/>
    </contour>
  </outline>
</glyph>
